<svg width="420" height="420" viewBox="0 0 420 420" fill="none" xmlns="http://www.w3.org/2000/svg">
<g clip-path="url(#clip0_55_44)">
<path d="M283.793 33.1204C239.344 3.8276 176.88 9.74741 137.584 53.2274C116.1 77.0086 107.373 109.721 85.0717 132.992C59.9636 159.223 29.9563 184.688 18.5759 220.411C6.48117 258.379 17.096 301.91 44.1434 330.948C77.0595 366.263 125.439 355.648 171.164 355.086C358.403 352.739 497.57 227.76 320.486 73.6915C305.687 60.7292 298.491 42.7656 283.793 33.1204Z" fill="#CCE9FF"/>
<path d="M299.001 221.942C299.001 221.942 276.598 254.143 253.735 243.682C230.821 233.22 248.019 224.034 248.019 224.034C248.019 224.034 243.784 215.205 271.546 225.004C284.661 229.545 299.001 221.942 299.001 221.942Z" fill="#FFBE55"/>
<path d="M271.699 122.581C271.699 122.581 293.388 148.097 264.401 183.361C235.414 218.675 239.905 237.353 239.905 237.353C239.905 237.353 199.487 175.961 271.699 122.581Z" fill="#0E538C"/>
<path d="M244.192 235.72C230.719 238.425 241.64 199.181 261.849 187.239C282.109 175.297 300.175 174.124 311.555 162.59C311.555 162.59 310.637 222.299 244.192 235.72Z" fill="#2A94F4"/>
<path d="M332.836 465.623C339.266 454.957 344.063 443.577 347.176 431.84L372.591 426.991L372.846 398.872L373.101 370.753L347.84 365.395C344.931 353.606 340.338 342.124 334.112 331.356L348.605 309.973L328.906 289.917L309.259 269.861L287.621 283.947C276.955 277.516 265.575 272.719 253.837 269.606L248.989 244.192L220.87 243.937L192.751 243.682L187.393 268.994C175.604 271.903 164.122 276.496 153.354 282.722L131.971 268.228L111.915 287.927L91.8591 307.575L105.944 329.213C99.514 339.878 94.7169 351.259 91.6039 362.996L66.1896 367.844L65.9344 395.964L65.6792 424.083L90.9915 429.441C93.9004 441.23 98.4933 452.712 104.719 463.48L90.226 484.863L109.925 504.919L129.623 524.974L151.261 510.889C161.927 517.32 173.307 522.117 185.045 525.23L189.893 550.644L218.012 550.899L246.131 551.154L251.49 525.842C263.278 522.933 274.761 518.34 285.529 512.114L306.911 526.608L326.967 506.909L347.023 487.21L332.836 465.623ZM170.245 445.669C143.606 418.52 144.015 374.887 171.164 348.248C198.314 321.609 241.947 322.017 268.586 349.166C295.225 376.316 294.817 419.949 267.667 446.588C240.518 473.227 196.885 472.819 170.245 445.669Z" fill="#FFBE55"/>
<path d="M270.984 297.164C270.984 297.164 275.985 305.636 278.078 307.013C280.936 308.902 279.149 310.79 277.772 310.79C276.394 310.79 269.504 311.3 267.973 309.565C266.442 307.83 265.677 302.625 264.248 301.298C262.819 299.92 261.339 294.561 264.962 293.235C268.126 292.01 270.984 297.164 270.984 297.164Z" fill="#0E538C"/>
<path d="M268.841 293.439C268.841 293.439 274.557 303.339 275.526 304.819C276.496 306.299 273.689 306.299 271.903 305.585C270.168 304.87 265.728 297.777 265.064 296.501C264.299 294.97 264.911 293.184 264.911 293.184L268.841 293.439Z" fill="#FFE3CA"/>
<path d="M263.023 298.797L264.35 308.901L265.064 308.952L264.86 301.655L263.023 298.797Z" fill="#0E538C"/>
<path d="M222.095 300.736C222.095 300.736 227.096 309.208 229.188 310.586C232.046 312.474 230.26 314.362 228.882 314.362C227.504 314.362 220.615 314.872 219.084 313.137C217.553 311.402 216.787 306.197 215.358 304.87C213.93 303.492 212.399 297.981 216.073 296.807C219.237 295.735 222.095 300.736 222.095 300.736Z" fill="#0E538C"/>
<path d="M220.207 297.062C220.207 297.062 225.616 306.911 226.586 308.391C227.555 309.871 224.748 309.871 222.962 309.157C221.227 308.442 216.787 301.349 216.124 300.073C215.358 298.542 215.971 296.756 215.971 296.756L220.207 297.062Z" fill="#FFE3CA"/>
<path d="M214.134 302.369L215.461 312.474L216.124 312.525L215.92 305.227L214.134 302.369Z" fill="#0E538C"/>
<path d="M199.947 223.83L245.06 244.396C245.06 244.396 250.112 246.029 250.673 251.643C252.408 269.096 265.473 296.756 265.473 296.756C269.657 298.797 269.351 297.011 269.351 297.011C266.697 288.539 263.482 253.633 262.36 239.599C262.104 236.639 261.951 234.598 261.951 233.934C261.951 233.475 261.441 232.914 260.624 232.25C254.45 227.249 228.984 216.838 228.984 216.838C209.796 216.328 199.947 223.83 199.947 223.83Z" fill="#FFE3CA"/>
<path d="M191.475 232.659C192.853 244.856 210.255 243.478 210.255 243.478H231.332C231.332 243.478 225.769 255.828 223.677 266.187C221.431 277.21 216.073 296.756 216.073 296.756C216.073 296.756 216.43 297.419 220.258 297.062C220.258 297.062 236.792 264.044 243.171 255.777C244.549 253.99 248.428 244.294 249.091 238.528C249.295 236.588 249.193 235.057 248.428 234.496C247.713 233.884 246.029 232.71 243.784 231.332C237.201 227.147 225.718 220.768 219.288 219.339C210.714 217.4 197.191 213.828 197.191 213.828C197.191 213.828 190.046 220.462 191.475 232.659Z" fill="#FFE3CA"/>
<path d="M205.815 138.758C205.815 138.758 202.651 132.787 204.182 126.357C205.713 119.978 211.633 113.599 220.309 116.559C228.984 119.468 235.976 126.204 230.77 134.012C225.565 141.82 235.465 145.342 232.965 149.016C230.464 152.741 231.383 156.569 232.454 157.436C233.526 158.304 236.945 161.366 236.588 164.989C236.231 168.612 219.747 154.374 219.747 154.374C219.747 154.374 210.868 136.462 205.815 138.758Z" fill="#0E538C"/>
<path d="M232.25 215.358C232.25 215.358 230.923 221.686 197.242 213.674C197.242 213.725 208.52 209.949 232.25 215.358Z" fill="#EB4747"/>
<path d="M196.885 215.511C196.374 216.532 195.864 217.502 195.303 218.522C207.601 218.88 219.951 219.237 232.25 219.594C230.311 213.062 230.923 204.233 231.281 197.548C231.689 189.383 236.231 183.667 235.721 175.4C238.17 175.808 238.578 175.859 241.028 176.267C237.303 165.652 236.027 160.345 224.442 156.262C220.666 154.936 218.165 154.68 214.083 154.987C200.661 156.109 196.629 156.262 189.995 168.408C200.304 170.041 198.62 173.767 201.733 184.024C203.264 189.025 204.846 194.639 204.029 199.895C203.264 205.05 196.885 210.765 196.885 215.511Z" fill="white"/>
<path d="M218.267 158.763C212.756 157.743 213.93 154.681 213.93 154.681C213.93 154.681 214.185 152.946 214.287 150.751C214.338 150.19 214.338 149.628 214.338 149.016C214.338 148.097 214.287 147.179 214.185 146.311C213.725 142.637 224.136 144.831 224.136 144.831C224.136 144.831 223.524 152.282 224.953 154.528C226.433 156.773 223.779 159.784 218.267 158.763Z" fill="#FFE3CA"/>
<path d="M207.806 154.629C207.806 154.629 218.88 167.439 222.962 170.399C222.962 170.399 227.657 166.163 224.748 154.936C224.8 154.936 219.441 152.231 207.806 154.629ZM208.112 123.857C208.112 123.857 202.345 134.931 208.061 145.444C213.776 155.956 225.004 140.851 225.718 139.115C226.433 137.329 230.311 127.327 222.656 124.316C215.001 121.254 209.745 120.846 208.112 123.857Z" fill="#FFE3CA"/>
<path d="M210 127.786C210 127.786 206.019 132.991 205.56 136.819C205.56 136.819 203.978 129.572 208.418 122.581C212.858 115.589 224.238 122.223 225.718 125.03C227.249 127.837 231.689 130.287 224.187 142.279C224.289 142.279 210.817 132.94 210 127.786Z" fill="#0E538C"/>
<path d="M219.237 146.566C219.237 146.566 218.216 148.761 214.338 150.802C214.389 150.241 214.389 149.679 214.389 149.067C214.338 149.016 216.991 148.71 219.237 146.566Z" fill="#FCD2B1"/>
<path d="M161.06 205.509C161.06 205.509 158.304 206.734 157.028 206.173C155.752 205.611 153.711 205.509 153.098 205.509C152.231 205.509 149.628 204.54 149.628 205.611C149.679 206.632 153.915 207.346 154.782 207.704C155.65 208.01 152.18 209.949 151.874 210.766C151.567 211.633 155.497 217.196 157.691 215.614C159.886 214.032 161.111 210.868 161.57 210.663C162.029 210.459 163.254 209.592 163.254 209.592L161.06 205.509Z" fill="#FFE3CA"/>
<path d="M152.282 210.255C152.282 210.255 145.852 215.563 145.75 216.277C145.648 216.992 146.005 217.349 146.617 216.839C147.23 216.379 152.996 211.888 152.996 211.888C152.996 211.888 146.566 219.492 146.362 220.054C146.26 220.36 146.872 221.074 147.23 220.87C147.587 220.666 154.425 213.521 154.425 213.521C154.425 213.521 148.454 220.615 148.403 221.176C148.352 221.636 149.118 222.146 149.577 221.636C150.036 221.125 156.007 214.899 156.007 214.899C156.007 214.899 151.976 220.36 152.231 220.819C152.384 221.125 152.894 221.738 153.864 220.309C154.834 218.88 157.538 215.716 157.538 215.716L152.282 210.255Z" fill="#FFE3CA"/>
<path d="M229.137 243.477H210.255C210.255 243.477 192.853 244.855 191.475 232.659C190.097 220.462 197.191 213.674 197.191 213.674C197.191 213.674 206.377 216.124 214.389 218.063C218.42 217.196 223.269 216.634 228.882 216.787C228.882 216.787 262.921 228.015 261.9 233.934C261.9 233.985 247.662 226.381 229.137 243.477Z" fill="#254368"/>
<path d="M216.838 222.35L252.868 221.84L234.7 231.077L216.838 222.35Z" fill="#E6E6E6"/>
<path d="M228.066 217.757C228.066 217.757 219.951 220.87 210.051 218.063L209.592 214.338L230.056 215.461L228.066 217.757Z" fill="#2A94F4"/>
<path d="M234.7 231.077L216.838 224.136V222.35L236.078 229.291L234.7 231.077Z" fill="#F2F2F2"/>
<path d="M227.913 219.492C227.81 220.819 229.137 221.789 230.413 221.278L232.505 220.36C233.118 220.105 233.475 219.441 233.373 218.778C232.505 213.317 230.617 192.139 233.373 188.464C234.394 187.137 235.006 185.964 235.363 184.892C237.149 189.536 239.395 195.507 240.313 198.722L257.307 221.38L263.023 222.809C255.93 205.662 250.163 196.578 250.163 196.578C249.04 193.568 245.876 184.535 243.018 176.472C241.232 171.368 239.599 166.673 238.731 164.173C238.272 162.897 237.405 161.825 236.231 161.111C233.577 159.529 229.188 157.028 225.208 155.14H225.157C225.055 155.089 224.902 155.038 224.8 154.936C232.352 166.367 229.392 198.722 227.913 219.492C227.913 219.441 227.913 219.441 227.913 219.492ZM199.793 155.905C197.344 156.263 191.373 162.131 188.158 168C184.535 174.736 180.809 182.391 178.002 184.892C172.899 189.536 158.559 205.917 157.896 205.509C157.64 205.356 161.825 210.408 162.335 210.612C162.591 210.715 185.861 190.557 188.107 187.495C190.25 184.586 195.915 172.389 197.599 172.644C197.752 172.899 199.793 177.39 201.733 183.922C201.784 184.024 201.784 184.126 201.835 184.229C203.162 188.77 203.06 193.721 202.345 199.283C201.784 203.468 198.671 210.357 196.783 213.674C196.578 214.083 196.629 214.848 196.834 215.41C196.987 215.767 197.191 216.022 197.446 216.124L204.284 218.676L205.866 219.288C207.04 219.696 208.214 219.492 209.132 218.829C209.898 218.267 210.408 217.451 210.561 216.481C212.092 204.795 213.981 192.853 215.512 188.362C222.248 168.613 212.909 153.813 212.909 153.813C212.909 153.813 201.937 155.089 199.793 155.905Z" fill="#FFBE55"/>
<path d="M234.7 231.077L245.417 201.835L279.915 202.396L269.708 229.342L234.7 231.077Z" fill="#F2F2F2"/>
<path d="M256.44 214.746C255.368 216.838 255.725 219.135 257.154 219.849C258.583 220.564 260.625 219.441 261.696 217.349C262.768 215.256 262.411 212.96 260.982 212.246C259.502 211.531 257.512 212.654 256.44 214.746Z" fill="#D3D3D3"/>
<path d="M220.053 134.88C220.053 134.88 222.248 138.299 220.207 141.31C218.165 144.27 220.717 147.178 221.176 150.342C221.635 153.506 212.654 161.825 222.605 166.061C232.608 170.245 235.772 163.305 233.22 159.477C230.668 155.65 228.882 152.537 228.627 147.076C228.423 141.616 226.637 133.144 220.053 134.88Z" fill="#0E538C"/>
<path d="M333.704 229.29V235.771L340.695 229.29H367.896C369.631 229.29 371.009 227.81 371.009 226.024V185.351C371.009 183.565 369.631 182.085 367.896 182.085H324.365C322.629 182.085 321.252 183.565 321.252 185.351V226.024C321.252 227.81 322.629 229.29 324.365 229.29H329.009H333.704Z" fill="#FFBE55"/>
<path d="M360.087 219.492C360.087 219.492 360.087 218.42 360.087 217.859C360.087 212.45 355.903 208.112 350.748 208.112C349.064 208.112 343.145 208.112 341.409 208.112C336.255 208.112 332.07 212.501 332.07 217.859C332.07 218.42 332.07 219.492 332.07 219.492H360.087ZM352.33 196.731C352.33 200.304 349.524 203.213 346.104 203.213C342.685 203.213 339.878 200.304 339.878 196.731C339.878 193.159 342.685 190.199 346.104 190.199C349.524 190.25 352.33 193.159 352.33 196.731Z" fill="white"/>
<path d="M136.819 179.38C136.819 181.932 134.829 183.973 132.43 183.973H129.521V194.741L119.264 183.973H85.531C83.0814 183.973 81.1422 181.932 81.1422 179.38V141.004C81.1422 138.452 83.1324 136.411 85.531 136.411H132.481C134.931 136.411 136.87 138.452 136.87 141.004V179.38H136.819Z" fill="#FFBE55"/>
<path d="M128.041 150.241H89.9198V153.303H128.041V150.241Z" fill="#CCE9FF"/>
<path d="M128.041 157.896H89.9198V160.957H128.041V157.896Z" fill="#CCE9FF"/>
<path d="M128.041 165.602H89.9198V168.664H128.041V165.602Z" fill="#CCE9FF"/>
<path d="M126.765 107.781C133.298 102.372 137.074 94.8701 137.584 86.1435C137.635 85.5821 137.635 85.0718 137.635 84.5104C137.687 81.1423 137.278 78.2844 136.36 75.1204C136.309 75.0183 136.309 74.9673 136.258 74.8652C136.258 74.9673 136.309 75.0183 136.36 75.1204L127.786 77.8762C128.399 79.9175 128.705 82.1119 128.705 84.4084C128.603 91.3999 125.286 97.5238 120.182 101.3L125.337 108.955C125.796 108.547 126.306 108.19 126.765 107.781Z" fill="#0E538C"/>
<path d="M92.1652 96.1968C89.8177 92.6756 88.4398 88.3888 88.4909 83.7959C88.644 72.1604 97.7789 62.9235 108.853 63.0766C117.784 63.2297 125.235 69.4046 127.735 77.8761L136.309 75.1203C136.309 75.0182 136.258 74.9672 136.207 74.8651C136.104 74.5079 135.951 74.0996 135.849 73.7424C135.798 73.6404 135.798 73.5383 135.747 73.4362C131.665 61.9538 121.866 54.401 110.18 53.7376C109.925 53.7376 109.618 53.7376 109.363 53.6865C109.261 53.6865 109.108 53.6865 109.006 53.6865H108.955C108.547 53.6865 108.19 53.6865 107.781 53.6865C107.679 53.6865 107.526 53.6865 107.424 53.6865C107.118 53.6865 106.812 53.7376 106.505 53.7376C106.301 53.7376 106.097 53.7886 105.893 53.7886C105.74 53.7886 105.536 53.8396 105.383 53.8396C105.026 53.8907 104.668 53.9417 104.362 53.9927H104.311C101.81 54.401 99.4629 55.1154 97.2175 56.0851C96.9623 56.1871 96.6561 56.3402 96.401 56.4423C87.4702 60.7801 80.989 69.7108 79.8153 80.4277C79.8153 80.4787 79.8153 80.5298 79.8153 80.6318C79.7643 80.9891 79.7643 81.3463 79.7132 81.7035C79.7132 81.9077 79.6622 82.0608 79.6622 82.2649C79.6622 82.5201 79.6622 82.7752 79.6112 82.9794C79.6112 83.1835 79.6112 83.3876 79.6112 83.5917C79.5091 90.277 81.4994 96.452 84.9186 101.555L92.1652 96.1968Z" fill="#CCE9FF"/>
<path d="M125.337 108.904L120.182 101.249C116.814 103.75 112.731 105.179 108.343 105.077C101.657 104.975 95.7886 101.453 92.2163 96.146L84.9186 101.555C85.2248 102.066 85.582 102.525 85.9392 102.984C90.8384 109.466 97.4727 113.344 105.281 114.263C105.332 114.263 105.383 114.263 105.434 114.263C105.842 114.314 106.25 114.365 106.608 114.365H106.659C106.761 114.365 106.914 114.365 107.016 114.365C107.424 114.365 107.832 114.416 108.241 114.416C114.467 114.518 120.284 112.528 125.081 109.057C125.643 108.7 125.796 108.547 125.337 108.904Z" fill="#FFBE55"/>
<path d="M109.159 83.643L140.748 94.3599C146.413 76.0901 136.87 56.4935 119.417 50.5737C115.947 49.4 112.834 48.8896 109.159 48.8896V83.643Z" fill="#2A94F4"/>
<path d="M366.313 110.741L366.16 103.188L359.73 102.78C359.22 100.33 358.301 98.0338 357.077 95.9925L361.261 90.6341L356.056 85.4287L351.259 89.8686C349.32 88.5417 347.125 87.5721 344.778 87.0618L344.114 80.1724L336.919 80.3255L336.51 87.0108C334.163 87.5211 331.968 88.4907 330.029 89.8176L324.875 85.4798L319.874 90.9403L324.109 95.9925C322.834 98.0338 321.915 100.33 321.405 102.78L314.821 103.494L314.975 111.047L321.405 111.455C321.915 113.905 322.834 116.202 324.058 118.243L319.874 123.601L325.079 128.807L329.876 124.367C331.815 125.694 334.01 126.663 336.357 127.174L337.021 134.063L344.216 133.91L344.625 127.225C346.972 126.714 349.166 125.745 351.106 124.418L356.26 128.756L361.261 123.295L357.026 118.243C358.301 116.202 359.22 113.905 359.73 111.455L366.313 110.741ZM340.797 117.018C335.541 117.12 331.203 112.782 331.101 107.271C330.999 101.759 335.132 97.2173 340.389 97.1153C345.645 97.0132 349.983 101.351 350.085 106.863C350.238 112.323 346.053 116.865 340.797 117.018Z" fill="#FFBE55"/>
<path d="M339.725 111.966L336.663 108.751L338.297 107.066L339.725 108.597L344.625 103.494L346.207 105.178L339.725 111.966Z" fill="#FFBE55"/>
</g>
<defs>
<clipPath id="clip0_55_44">
<rect width="420" height="420" fill="white"/>
</clipPath>
</defs>
</svg>
