<svg width="51" height="40" viewBox="0 0 51 40" fill="none" xmlns="http://www.w3.org/2000/svg">
<path d="M11.5216 39.0412H1.03631V12.9865H11.5216V39.0412ZM6.27262 9.43241C2.92022 9.43241 0.200012 7.28882 0.200012 4.70202C0.200012 3.45927 0.839804 2.26743 1.97864 1.38867C3.11748 0.509915 4.66207 0.0162354 6.27262 0.0162354C7.88318 0.0162354 9.42778 0.509915 10.5666 1.38867C11.7054 2.26743 12.3452 3.45927 12.3452 4.70202C12.3452 7.28882 9.62502 9.43241 6.27262 9.43241ZM50.7642 39.0412H40.3024V26.3581C40.3024 23.3351 40.2229 19.459 34.8511 19.459C29.3999 19.459 28.5636 22.7427 28.5636 26.1407V39.0412H18.0891V12.9865H28.1445V16.5405H28.2908C29.6907 14.4931 33.1099 12.3328 38.2107 12.3328C48.8225 12.3328 50.7732 17.7252 50.7732 24.7288V39.0412H50.7642Z" fill="#0077B5"/>
</svg>
