<svg width="745" height="419" viewBox="0 0 745 419" fill="none" xmlns="http://www.w3.org/2000/svg">
<g clip-path="url(#clip0_55_16)">
<path opacity="0.11" d="M366.81 416.437C459.169 416.437 534.04 406.246 534.04 393.675C534.04 381.103 459.169 370.912 366.81 370.912C274.452 370.912 199.581 381.103 199.581 393.675C199.581 406.246 274.452 416.437 366.81 416.437Z" fill="#2A94F4"/>
<path opacity="0.11" d="M544.724 265.622C546.721 314.669 498.698 425.334 358.474 418.716C226.348 412.48 95.6048 307.321 169.687 141.355C241.277 -19.0261 370.089 -5.70774 415.497 6.99378C465.704 21.0377 609.135 77.9293 527.081 172.617C395.422 324.547 540.652 165.623 544.724 265.622Z" fill="#2A94F4"/>
<path d="M302.608 109.707L273.345 81.5718L222.169 134.784L251.429 162.917C262.996 140.624 280.833 122.109 302.608 109.707ZM236.903 222.643C236.903 209.819 238.771 197.433 242.234 185.731H201.644V259.555H242.234C238.771 247.854 236.903 235.467 236.903 222.643ZM366.81 92.7553C379.636 92.7553 392.024 94.6229 403.728 98.0851V57.5015H329.893V98.0851C341.596 94.6229 353.984 92.7553 366.81 92.7553ZM482.192 162.917L511.452 134.784L460.275 81.5718L431.012 109.707C452.788 122.109 470.625 140.624 482.192 162.917ZM491.387 185.731C494.85 197.433 496.717 209.819 496.717 222.643C496.717 235.467 494.85 247.853 491.387 259.555H531.977V185.731H491.387ZM431.012 335.579L460.275 363.714L511.452 310.502L482.192 282.369C470.625 304.663 452.788 323.177 431.012 335.579ZM251.429 282.369L222.169 310.501L273.346 363.714L302.609 335.579C280.833 323.177 262.996 304.663 251.429 282.369ZM366.81 352.531C353.984 352.531 341.596 350.663 329.893 347.201V387.784H403.728V347.201C392.024 350.663 379.636 352.531 366.81 352.531Z" fill="#FFBE55"/>
<path d="M507.847 219.384C506.143 141.515 442.522 78.9033 364.233 78.9033C347.748 78.9033 331.927 81.7157 317.18 86.8247C306.456 90.5403 296.336 95.5225 286.943 101.541C276.815 108.031 267.537 115.73 259.352 124.474C250.447 133.989 242.8 144.694 236.725 156.357C226.402 176.173 220.539 198.683 220.539 222.576C220.539 227.097 220.765 231.564 221.173 235.979C226.81 296.885 270.455 346.774 328.183 361.686C339.703 364.662 351.782 366.25 364.233 366.25C443.593 366.25 507.928 301.925 507.928 222.576C507.928 221.506 507.871 220.449 507.847 219.384ZM364.233 316.121C356.105 316.121 348.22 315.081 340.701 313.133C302.398 303.212 273.678 269.627 270.944 228.92C270.803 226.818 270.674 224.713 270.674 222.576C270.674 206.671 274.676 191.715 281.681 178.605C286.067 170.397 291.668 162.95 298.196 156.43C302.811 151.821 307.919 147.715 313.403 144.139C320.044 139.809 327.247 136.271 334.924 133.74C344.146 130.699 353.993 129.031 364.234 129.031C414.833 129.031 456.024 169.201 457.711 219.383C457.747 220.445 457.792 221.506 457.792 222.576C457.791 274.24 415.903 316.121 364.233 316.121Z" fill="#FFBE55"/>
<path fill-rule="evenodd" clip-rule="evenodd" d="M294.878 288.117C294.878 288.117 290.074 291.703 287.617 293.536C286.771 294.168 285.619 294.198 284.739 293.614C283.758 292.962 283.09 291.933 282.892 290.773C282.695 289.612 282.985 288.42 283.694 287.481C285.658 284.881 287.959 281.833 287.959 281.833L294.878 288.117Z" fill="#FCD2B1"/>
<path fill-rule="evenodd" clip-rule="evenodd" d="M379.555 257.497C383.137 260.131 389.561 262.855 391.898 265.847C406.904 285.065 391.064 299.828 369.45 285.07C334.712 261.348 338.433 252.481 294.575 291.102L284.639 283.326C316.849 229.796 329.378 220.593 379.555 257.497Z" fill="#0E538C"/>
<path fill-rule="evenodd" clip-rule="evenodd" d="M338.881 347.811C338.881 347.811 337.003 354.765 336.042 358.322C335.727 359.493 334.593 360.252 333.389 360.098C332.597 359.996 331.877 359.584 331.388 358.952C330.9 358.321 330.682 357.52 330.784 356.728C331.351 352.293 332.35 344.484 332.35 344.484L338.881 347.811Z" fill="#FCD2B1"/>
<path fill-rule="evenodd" clip-rule="evenodd" d="M338.461 357.266C338.444 356.771 328.807 355.931 328.694 356.311C328.662 356.358 328.647 356.412 328.63 356.466C327.085 361.668 322.019 365.004 316.628 364.368C316.318 364.331 316.004 364.354 315.702 364.433C312.368 365.324 310.516 367.215 310.18 370.133C319.595 371.375 329.158 371.148 338.88 369.336L338.461 357.266ZM289.648 293.768C289.877 293.328 281.91 287.844 281.625 288.118C281.573 288.144 281.533 288.182 281.492 288.222C277.581 291.984 271.529 292.386 267.154 289.174C266.902 288.99 266.618 288.854 266.316 288.774C262.976 287.903 260.432 288.634 258.7 291.007C266.276 296.732 274.705 301.252 284.056 304.473L289.648 293.768Z" fill="#0B4870"/>
<path d="M274.796 296.34C274.796 296.34 274.834 296.355 274.796 296.34V296.34Z" fill="#0B4870"/>
<path fill-rule="evenodd" clip-rule="evenodd" d="M392.74 277.595C397.183 277.77 404.03 276.427 407.643 277.595C430.843 285.101 422.984 313.053 396.811 312.94C354.745 312.76 354.242 306.195 340.329 350.352L330.135 349.381C326.807 286.999 330.497 275.15 392.74 277.595Z" fill="#0E538C"/>
<path fill-rule="evenodd" clip-rule="evenodd" d="M398.832 254.395C398.832 254.395 405.353 258.815 408.278 255.679C411.203 252.542 409.175 262.12 409.175 262.12L405.85 265.622L399.828 259.851L393.733 253.351L398.832 254.395ZM432.678 224.381C428.444 219.619 420.823 211.258 420.823 211.258C420.823 211.258 407.688 215.494 409.175 223.694C410.662 231.895 411.525 238.579 411.525 238.579L428.375 233.946C428.375 233.946 436.912 229.143 432.678 224.381Z" fill="#FCD2B1"/>
<path fill-rule="evenodd" clip-rule="evenodd" d="M409.138 223.695C409.138 223.695 413.537 266.452 397.776 269.75L396.811 277.596C396.811 277.596 411.338 273.782 414.515 267.307C417.691 260.832 421.539 228.377 421.539 228.377C415.634 228.823 411.341 227.442 409.138 223.695Z" fill="#0B4870"/>
<path fill-rule="evenodd" clip-rule="evenodd" d="M393.431 187.915C387.656 192.093 385.458 199.586 387.134 206.947C387.433 208.257 388.796 214.471 390.451 216.86C398.807 228.921 412.81 225.76 418.064 221.959C426.167 216.098 427.227 203.712 420.43 194.317C413.632 184.923 401.534 182.054 393.431 187.915Z" fill="#FFE3CA"/>
<path fill-rule="evenodd" clip-rule="evenodd" d="M375.529 198.669C376.244 213.703 399.349 199.028 400.183 195.602C400.059 200.382 402.369 204.094 406.897 206.833C406.897 206.833 405.912 211.662 410.18 213.851C414.448 216.04 421.261 220.934 424.908 216.77C427.398 213.925 428.018 207.82 428.565 202.739C430.926 180.829 412.254 183.584 408.188 181.697C408.188 181.697 374.298 172.773 375.529 198.669Z" fill="#0B4870"/>
<path fill-rule="evenodd" clip-rule="evenodd" d="M406.387 207.645C406.387 204.935 408.583 202.739 411.293 202.739C414.002 202.739 416.2 204.935 416.2 207.645C416.2 207.802 416.2 207.961 416.2 208.12C416.2 211.091 413.791 213.499 410.82 213.499C408.534 213.499 406.387 213.499 406.387 213.499V207.645Z" fill="#FFE3CA"/>
<path d="M385.574 205.709C385.574 205.709 385.574 205.672 385.574 205.709V205.709ZM424.186 187.767C424.164 187.666 424.186 187.767 424.186 187.767V187.767Z" fill="#602600"/>
<path d="M364.9 233.016L402.286 262.839L403.423 261.401L366.565 232.296C365.934 232.081 365.279 232.536 364.9 233.016Z" fill="#D3D3D3"/>
<path fill-rule="evenodd" clip-rule="evenodd" d="M365.909 233.016L402.855 262.12L396.822 277.409L359.876 248.304L365.909 233.016Z" fill="#F7F7F7"/>
<path d="M395.957 277.262C395.644 278.754 396.122 279.204 397.701 278.203L404.001 262.121C403.724 261.269 403.057 261.158 402 261.787L395.957 277.262Z" fill="#D3D3D3"/>
<path d="M358.839 247.965C358.655 248.524 358.705 248.645 359.117 249.021L396.049 278.597L397.196 277.166L360.793 248.014L366.165 233.016H364.9L358.839 247.965Z" fill="#D3D3D3"/>
<path fill-rule="evenodd" clip-rule="evenodd" d="M400.611 275.984C407.483 278.71 411.103 293.189 412.819 309.687C478.063 291.515 456.341 237.73 429.503 220.837C428.367 226.303 424.548 227.548 418.201 228.377C418.02 246.244 416.956 256.395 400.611 275.984Z" fill="#0B4870"/>
<path fill-rule="evenodd" clip-rule="evenodd" d="M406.12 278.359C404.1 277.535 402.34 276.968 401.025 276.595C399.568 276.216 398.358 275.204 397.728 273.838C396.492 271.133 394.477 268.804 391.638 266.87C391.103 266.508 390.662 266.025 390.35 265.46C389.86 264.584 389.188 263.368 389.188 263.368C388.698 262.495 388.052 262.113 387.376 262.121C386.802 262.117 386.275 262.435 386.009 262.943C385.744 263.451 385.784 264.065 386.115 264.535C386.981 265.851 388.436 267.916 389.392 269.272C389.484 269.403 389.481 269.578 389.384 269.706C389.288 269.833 389.12 269.884 388.968 269.831C388.429 269.632 387.849 269.612 387.245 269.736C386.109 269.961 384.933 269.636 384.073 268.86C382.894 267.808 381.528 266.811 379.944 265.872C378.815 265.202 377.769 266.536 377.841 267.944L386.511 274.535C393.429 275.294 398.829 279.017 403.928 283.325C403.928 283.325 410.54 280.162 406.12 278.359Z" fill="#FCD2B1"/>
<path fill-rule="evenodd" clip-rule="evenodd" d="M420.966 278.203C415.466 279.93 409.009 279.364 406.276 278.451C404.432 277.835 401.511 281.77 403.547 282.952C408.046 285.565 416.79 289.828 424.26 292.062C425.578 287.352 422.944 282.181 420.966 278.203Z" fill="#FCD2B1"/>
<path fill-rule="evenodd" clip-rule="evenodd" d="M423.668 291.88C438.029 296.046 466.441 286.958 448.003 239.236C447.079 236.847 440.622 229.409 432.024 232.489C428.613 233.71 421.307 239.287 425.952 249.217C436.133 270.981 427.387 276.211 419.34 278.739C422.903 282.617 424.983 287.176 423.668 291.88Z" fill="#0E538C"/>
<path d="M390.585 250.39C389.603 250.403 388.526 250.633 388.243 251.531C387.926 252.539 388.927 253.617 390.07 253.409C392.398 253.013 394.748 254.528 396.965 256.052C396.965 256.052 398.906 256.626 399.251 255.17C399.567 253.837 397.667 252.869 396.039 251.998C394.343 251.09 392.516 250.365 390.585 250.39Z" fill="#FCD2B1"/>
</g>
<defs>
<clipPath id="clip0_55_16">
<rect width="745" height="419" fill="white"/>
</clipPath>
</defs>
</svg>
