<svg width="547" height="308" viewBox="0 0 547 308" fill="none" xmlns="http://www.w3.org/2000/svg">
<path opacity="0.1" d="M155.213 271.197C189.858 301.366 311.12 321.382 382.616 252.37C454.111 183.359 399.386 -5.17647 273.556 12.8843C147.727 30.9451 173.186 82.4772 162.448 122.716C151.711 162.955 120.567 241.028 155.213 271.197Z" fill="#2A94F4"/>
<path opacity="0.1" d="M330.659 299.229C353.645 299.229 372.279 296.793 372.279 293.788C372.279 290.782 353.645 288.346 330.659 288.346C307.673 288.346 289.039 290.782 289.039 293.788C289.039 296.793 307.673 299.229 330.659 299.229Z" fill="#2A94F4"/>
<path opacity="0.1" d="M212.826 297.97C238.645 297.97 259.576 295.256 259.576 291.907C259.576 288.558 238.645 285.844 212.826 285.844C187.006 285.844 166.075 288.558 166.075 291.907C166.075 295.256 187.006 297.97 212.826 297.97Z" fill="#2A94F4"/>
<path opacity="0.1" d="M275.11 308C300.93 308 321.861 306.121 321.861 303.803C321.861 301.484 300.93 299.605 275.11 299.605C249.291 299.605 228.36 301.484 228.36 303.803C228.36 306.121 249.291 308 275.11 308Z" fill="#2A94F4"/>
<path d="M299.609 42.1262C299.609 42.1262 297.763 36.1706 297.926 35.3904C298.025 34.9104 299.175 31.957 299.561 30.9885C299.705 30.6281 299.85 30.2613 299.885 29.8735C299.921 29.4768 299.839 29.0781 299.741 28.6905C299.471 27.6148 299.08 26.5722 298.69 25.5327C298.587 25.2563 298.482 24.978 298.327 24.7267C298.138 24.4224 297.882 24.1666 297.626 23.9157C296.166 22.4812 294.662 21.0923 293.116 19.7511C293.034 19.6804 292.945 19.6062 292.838 19.5948C292.581 19.5671 291.709 21.2862 291.684 21.6835C291.582 23.3413 291.942 25.0302 292.713 26.5143C292.866 26.8097 293.037 27.1023 293.11 27.4263C293.304 28.2858 292.776 29.1106 292.511 29.9456C292.272 30.7002 292.025 31.507 291.923 32.293C291.737 33.7337 292.995 34.7128 293.181 34.978C293.285 35.1249 293.316 35.3082 293.348 35.4842C293.551 36.6326 293.928 40.9287 293.928 40.9287" fill="#FCD2B1"/>
<path d="M323.71 53.6318C322.064 54.7572 321.876 57.4259 321.788 59.238C321.681 61.4208 321.988 63.6042 322.42 65.7388C322.721 67.2243 323.115 68.7626 324.119 69.8982C324.631 70.478 325.276 70.9212 325.915 71.3581C326.277 71.6059 326.647 71.8575 327.068 71.9781C327.49 72.0984 327.979 72.0676 328.318 71.7899C328.813 71.384 328.821 70.6431 328.789 70.0037C328.579 65.8355 328.453 61.5925 329.513 57.5557" fill="#0B4870"/>
<path d="M312.65 281.782C312.65 281.782 312.615 285.714 312.893 287.109C313.171 288.504 317.663 288.055 318.094 287.26C318.525 286.466 317.988 279.967 317.988 279.967" fill="#FCD2B1"/>
<path d="M319.395 288.602C319.517 290.076 319.509 292.861 319.509 292.861L314.903 293.972L314.317 293.189C314.317 293.189 313.03 294.29 311.61 294.666C310.556 294.945 308.353 295.158 307.266 295.085C303.46 294.83 300.835 293.642 300.704 293.085C300.159 290.757 305.216 291.049 306.245 290.963C309.201 290.716 311.192 288.593 311.768 287.081C312.186 285.984 311.94 285.736 312.568 285.882C312.568 285.882 313.128 285.951 313.55 286.574C314.197 287.529 315.321 288.111 316.465 287.816C317.119 287.648 317.764 287.347 318.204 286.82C318.204 286.82 319.272 287.128 319.395 288.602Z" fill="#0B4870"/>
<path d="M321.446 233.522C321.01 226.613 326.584 217.368 326.584 217.368C326.584 217.368 311.532 209.09 311.306 206.515C311.306 206.515 309.245 220.731 308.506 225.747C307.221 234.459 311.564 284.154 311.564 284.154C311.564 284.154 314.714 285.029 318.898 284.256C318.898 284.256 319.68 265.061 322.815 252.058C324.302 245.892 321.966 235.23 321.446 233.522Z" fill="#0E538C"/>
<path d="M322.655 153.872C317.004 166.495 310.868 207.225 309.396 221.286C308.773 227.248 313.733 234.235 319.509 228.844C326.405 222.409 336.105 192.927 339.571 187.723C343.037 182.518 356.006 177.748 347.148 151.342" fill="#0E538C"/>
<path d="M348.028 282.029C348.028 282.029 348.536 287.573 348.736 288.981C348.936 290.39 353.447 290.191 353.922 289.423C354.396 288.653 354.222 282.135 354.222 282.135" fill="#FCD2B1"/>
<path d="M355.196 290.591C355.295 292.067 355.046 294.499 355.046 294.499L349.856 294.848L349.542 293.997C349.542 293.997 347.917 294.978 346.595 295.067L342.214 295.362C339.007 295.577 337.159 295.291 337.039 294.732C336.542 292.393 340.38 292.243 341.378 292.176C344.243 291.983 347.254 290.432 347.832 288.931C348.251 287.842 348.017 287.59 348.622 287.747C348.622 287.747 349.164 287.827 349.564 288.456C350.177 289.423 351.258 290.026 352.369 289.752C353.005 289.596 353.634 289.306 354.067 288.787C354.067 288.787 355.097 289.115 355.196 290.591Z" fill="#0B4870"/>
<path d="M336.745 232.707C337.701 237.619 350.52 235.784 350.243 231.434C349.85 225.249 354.179 217.256 355.839 187.818C356.029 184.455 359.395 183.961 360.721 174.815C362.028 165.652 356.607 155.511 356.607 155.511L336.884 152.685C336.884 152.685 329.305 169.805 330.872 186.875C332.44 203.946 335.611 226.923 336.745 232.707Z" fill="#0E538C"/>
<path d="M350.209 230.401C350.209 230.401 354.693 239.293 355.219 245.72C355.989 255.124 355.037 286.076 355.037 286.076C355.037 286.076 350.187 287.131 347.597 286.367C347.597 286.367 336.212 231.45 335.794 225.545C335.377 219.64 350.209 230.401 350.209 230.401Z" fill="#0E538C"/>
<path d="M315.017 94.3496C317.246 91.7895 324.323 87.5702 333.781 87.8691C340.297 88.0747 358.043 89.1515 360.026 93.5152C361.039 95.7456 362.128 118.588 360.644 126.465C359.528 132.387 356.673 147.058 356.673 150.599C356.673 154.14 358.573 155.657 357.686 156.686C355.701 158.989 342.122 159.956 335.747 159.956C330.073 159.956 320.415 158.441 319.925 156.622C319.198 153.921 321.032 154.022 321.281 151.19C321.529 148.359 322.866 129.685 321.205 126.971C318.568 122.663 315.949 111.316 315.746 108.07C315.544 104.824 312.788 96.9094 315.017 94.3496Z" fill="#2A94F4"/>
<path d="M331.71 81.0846C331.71 81.0846 331.646 88.9628 331.329 89.2808C331.276 89.3338 331.189 89.3983 331.08 89.469C330.076 90.1227 329.625 91.3592 329.91 92.5231C330.387 94.4774 331.217 96.9874 332.279 96.6722C333.465 96.3203 339.253 93.4707 342.704 91.7499C343.623 91.2914 343.957 90.249 343.717 89.2489C343.709 89.2172 343.705 89.1853 343.705 89.1536C343.705 88.5182 345.229 76.1289 345.229 76.1289" fill="#FCD2B1"/>
<path d="M330.977 52.1304C329.551 53.0746 325.141 53.5817 324.564 55.6681C323.989 57.7542 324.353 62.2165 324.301 63.4979C324.198 66.0485 324.443 68.6574 324.596 71.2013C324.795 74.5166 325.307 80.5405 329.127 82.1082C330.225 82.5582 330.687 82.6748 331.811 82.5174C333.306 82.3078 334.806 82.1339 336.3 81.922C338.617 81.5934 341.19 81.2523 343.129 79.8296C345.72 77.9288 345.997 73.4103 345.849 70.4518L345.005 53.5064L330.977 52.1304Z" fill="#FFE3CA"/>
<path d="M330.745 103.943C331.085 97.3496 308.387 71.4959 308.664 70.3737C308.94 69.2517 298.48 36.3274 298.48 36.3274L292.536 36.7883C292.536 36.7883 294.479 64.63 297.134 73.9365C299.002 80.4877 313.565 99.7868 313.565 99.7868C313.565 99.7868 330.405 110.536 330.745 103.943Z" fill="#2A94F4"/>
<path d="M346.258 147.559L380.493 154.028C381.426 154.204 382.01 155.141 381.759 156.057L377.173 179.761C376.949 180.578 376.136 181.086 375.304 180.929L341.069 174.46C340.136 174.284 339.552 173.348 339.803 172.431L344.389 148.728C344.613 147.91 345.426 147.402 346.258 147.559Z" fill="#0B4870"/>
<path d="M346.662 149.379L379.44 155.573L374.9 179.109L342.122 172.916L346.662 149.379Z" fill="#F7F7F7"/>
<path d="M345.792 171.682L349.373 151.646" stroke="#D3D3D3" stroke-width="0.528" stroke-miterlimit="10" stroke-linecap="round" stroke-linejoin="round"/>
<path d="M348.883 172.282L352.464 152.246" stroke="#D3D3D3" stroke-width="0.528" stroke-miterlimit="10" stroke-linecap="round" stroke-linejoin="round"/>
<path d="M353.332 173.194L356.912 153.158" stroke="#D3D3D3" stroke-width="0.528" stroke-miterlimit="10" stroke-linecap="round" stroke-linejoin="round"/>
<path d="M357.78 174.106L361.361 154.07" stroke="#D3D3D3" stroke-width="0.528" stroke-miterlimit="10" stroke-linecap="round" stroke-linejoin="round"/>
<path d="M362.228 175.018L366.243 154.982" stroke="#D3D3D3" stroke-width="0.528" stroke-miterlimit="10" stroke-linecap="round" stroke-linejoin="round"/>
<path d="M366.676 175.93L370.691 155.894" stroke="#D3D3D3" stroke-width="0.528" stroke-miterlimit="10" stroke-linecap="round" stroke-linejoin="round"/>
<path d="M371.125 176.842L375.304 156.806" stroke="#D3D3D3" stroke-width="0.528" stroke-miterlimit="10" stroke-linecap="round" stroke-linejoin="round"/>
<path d="M364.408 164.79C364.408 164.79 363.054 167.554 362.329 168.958C361.856 169.874 358.26 172.94 356.818 175.382C356.122 176.561 355.509 177.892 355.687 179.25C355.864 180.608 357.139 181.894 358.476 181.607C358.857 181.525 359.293 181.338 359.601 181.577C359.757 181.699 359.826 181.898 359.922 182.071C360.217 182.602 360.855 182.92 361.456 182.837C362.058 182.754 362.585 182.276 362.727 181.685C363.646 182.545 365.246 182.527 366.146 181.647C365.611 181.205 365.211 180.522 365.321 179.836C365.426 179.175 365.959 178.68 366.367 178.149C367.086 177.214 367.472 176.027 367.44 174.847C367.418 174.006 367.191 173.184 367.098 172.347C366.908 170.631 367.303 168.855 368.201 167.381" fill="#FCD2B1"/>
<path d="M354.096 109.42C355.131 113.112 370.888 137.393 370.888 137.393L362.453 168.171L367.262 171.184C367.262 171.184 382.26 146.237 382.306 139.193C382.352 132.149 371.335 106.323 363.28 95.7638C360.716 92.4026 355.577 90.7061 355.577 90.7061" fill="#2A94F4"/>
<path d="M346.565 67.229C345.391 66.9774 344.435 66.6178 344.105 67.7737C343.93 68.3865 343.952 69.146 343.429 69.5096C342.907 69.8715 342.139 69.5492 341.803 69.0102C341.468 68.4712 341.447 67.801 341.436 67.1662C341.412 65.7614 341.388 64.3566 341.364 62.9517C341.34 61.576 341.273 60.0782 340.38 59.0322C339.929 58.504 339.307 58.1481 338.665 57.8837C336.573 57.0213 334.224 57.0438 331.977 57.3076C329.73 57.5714 327.502 58.0625 325.24 58.093C324.289 58.1056 323.319 58.0323 322.438 57.6747C321.015 57.0972 319.951 55.8019 319.455 54.3474C318.958 52.893 318.988 51.2962 319.322 49.7961C319.642 50.2465 320.013 50.6603 320.426 51.0267C320.462 50.2716 320.652 49.5241 320.981 48.8436C322.721 52.0637 336.741 46.1703 340.601 46.5698C343.277 46.8465 345.43 46.8941 346.605 50.6993C346.753 50.9232 347.014 51.0396 347.259 51.1505C349.95 52.3694 351.606 54.3848 352.995 57.7303C354.695 61.8233 353.749 67.1742 352.495 71.4249C352.18 72.4932 352.049 73.2213 351.418 74.1396C350.788 75.0576 349.426 75.8558 348.322 75.9995C347.218 76.1436 345.203 76.9079 344.834 75.8564C344.571 75.1041 345.743 73.2201 345.989 72.4627" fill="#0B4870"/>
<path d="M344.101 72.4385C344.101 72.4385 344.164 73.1983 344.785 73.6072C345.33 73.966 346.089 73.6377 346.569 73.2867C347.935 72.2865 348.499 70.4465 348.279 68.811C348.021 66.8834 346.448 65.389 344.944 66.4089C344.064 67.0058 343.82 68.3085 344.163 69.3158" fill="#FFE3CA"/>
<path d="M340.667 165.394L343.63 166.096L345.77 155.006L342.798 154.378L340.667 165.394Z" fill="#0B4870"/>
<path d="M338.691 161.982C339.39 162.114 342.086 162.624 342.086 162.624L343.088 157.32L339.693 156.678C338.23 156.401 336.82 157.364 336.543 158.829C336.266 160.293 337.228 161.705 338.691 161.982ZM338.945 160.824C338.124 160.669 337.584 159.877 337.739 159.055C337.895 158.233 338.686 157.693 339.507 157.848C340.328 158.003 340.867 158.796 340.712 159.617C340.557 160.439 339.766 160.979 338.945 160.824Z" fill="#0B4870"/>
<path d="M279.373 24.7446C279.625 22.6268 274.755 21.1938 274.266 22.9445C274.214 23.1322 273.792 23.6478 273.678 24.4355C273.581 25.1071 273.287 25.8899 273.202 26.5655C273.125 27.1792 273.271 30.0513 271.84 30.3582C269.646 30.8287 271.036 27.0075 269.489 26.1503C269.004 25.8814 268.488 28.8439 268.451 30.5196C268.415 32.1948 268.406 33.0344 268.563 34.0208C268.7 35.0078 269.245 36.4038 269.169 37.0016C269.046 37.9638 267.923 39.9404 267.923 39.9404L273.465 41.2032C273.465 41.2032 274.775 38.154 275.445 37.4448C277.128 35.7644 278.181 33.8357 278.8 31.5029C279.188 30.0416 279.321 28.5162 279.433 27.0127C279.433 27.0124 279.347 24.9631 279.373 24.7446Z" fill="#FCD2B1"/>
<path d="M227.261 71.1207C227.261 71.1207 244.837 70.9653 254.378 60.2603C261.991 49.583 269.345 37.7703 269.894 36.6741C271.392 37.2473 274.612 38.7217 274.612 38.7217C274.612 38.7217 264.555 61.2468 260.638 66.3915C256.72 71.536 249.014 79.962 232.726 84.1449C224.923 75.1781 227.261 71.1207 227.261 71.1207ZM238.715 281.147C238.715 281.147 239.726 283.456 239.675 285.006C239.624 286.556 234.712 286.873 234.107 286.095C233.502 285.318 232.924 278.232 232.924 278.232" fill="#FCD2B1"/>
<path d="M232.864 287.512C232.93 289.123 233.486 291.729 233.486 291.729L239.152 291.496L239.393 290.538C239.393 290.538 241.269 291.409 242.712 291.349L247.495 291.152C250.997 291.008 252.966 290.479 253.029 289.859C253.293 287.266 249.115 287.556 248.026 287.601C244.899 287.73 241.453 286.404 240.649 284.845C240.066 283.714 240.291 283.412 239.653 283.655C239.653 283.655 239.076 283.804 238.716 284.534C238.165 285.654 237.064 286.435 235.828 286.269C235.121 286.175 234.406 285.935 233.875 285.424C233.875 285.424 232.797 285.901 232.864 287.512Z" fill="#0B4870"/>
<path d="M183.363 278.069C183.363 278.069 182.485 282.265 181.864 283.686C181.244 285.107 176.563 283.58 176.289 282.634C176.015 281.687 178.1 274.891 178.1 274.891" fill="#FCD2B1"/>
<path d="M174.61 283.489C174.075 285.01 173.311 287.947 173.311 287.947L177.712 290.334L178.529 289.663C178.529 289.663 179.539 291.162 180.886 291.933C181.886 292.505 184.078 293.312 185.21 293.522C189.172 294.257 192.185 293.698 192.473 293.145C193.678 290.835 188.426 289.808 187.397 289.446C184.445 288.407 182.998 285.643 182.828 283.898C182.705 282.631 183.026 282.434 182.343 282.423C182.343 282.423 181.752 282.348 181.148 282.893C180.221 283.728 178.91 284.045 177.823 283.433C177.201 283.083 176.625 282.596 176.321 281.924C176.322 281.924 175.144 281.967 174.61 283.489Z" fill="#0B4870"/>
<path d="M198.724 166.612C198.724 166.612 190.265 148.472 203.145 134.518C203.145 134.518 214.817 139.181 224.019 139.422C231.265 139.613 234.904 138.712 234.904 138.712C234.904 138.712 237.083 152.078 237.057 173.177L198.724 166.612ZM232.453 283.188C232.686 283.195 232.919 283.186 233.134 283.177C237.915 283.029 240.614 282.353 240.614 282.353L240.557 280.974C239.422 259.856 240.557 225.216 240.606 214.282C240.608 213.516 240.563 212.819 240.454 212.191C239.296 204.236 231.092 205.622 227.926 213.107C227.183 214.852 226.613 216.772 226.2 218.835C225.687 221.319 225.382 224.011 225.25 226.862C224.39 245.167 230.482 269.625 232.453 283.188Z" fill="#FFBE55"/>
<path d="M213.655 174.527C213.697 174.741 213.756 174.972 213.816 175.202C216.036 184.745 223.03 210.497 226.198 218.819L226.199 218.836C226.663 219.998 228.114 220.936 229.943 221.344C234.138 222.303 240.264 220.502 240.454 212.192C240.482 211.275 240.425 210.279 240.298 209.203C239.473 202.498 236.467 165.383 236.021 161.808C235.591 158.231 234.729 153.026 232.81 152.439C223.233 149.556 210.629 161.174 213.655 174.527ZM196.431 213.866C202.576 207.583 211.584 210.066 207.816 219.578C203.785 229.75 191.192 258.046 184.56 278.119L184.099 279.426C184.099 279.426 181.087 279.032 176.202 277.22C179.217 264.244 180.885 242.025 187.614 226.312C189.778 221.261 193.246 217.122 196.431 213.866Z" fill="#FFBE55"/>
<path d="M230.008 153.242C230.638 138.331 212.541 148.962 203.869 154.235C200.218 156.453 199.021 160.642 198.68 164.552C198.336 168.463 195.189 208.705 194.527 216.051C193.033 232.611 207.035 223.012 208.205 218.392C211.158 206.728 229.665 161.367 230.008 153.242Z" fill="#FFBE55"/>
<path d="M227.543 59.2124C227.582 60.3352 227.625 64.7248 225.295 65.7728C222.965 66.8371 221.471 67.2837 221.538 67.6439C221.565 67.8073 221.795 68.5799 222.042 69.3371C222.577 71.0316 223.389 71.4526 223.389 71.4526L223.726 77.0721L219.54 81.2507L218.173 82.6121L216.118 80.7294L209.42 74.6221C209.42 74.6221 212.18 71.2179 210.274 67.5695C210.002 67.0553 206.949 63.6716 204.515 60.263C203.098 58.2585 201.892 56.2622 201.573 54.836C200.7 50.9346 199.964 46.8277 202.201 44.3779C204.421 41.9279 219.759 31.8558 222.829 43.6741C222.83 43.6744 227.505 58.0897 227.543 59.2124Z" fill="#FFE3CA"/>
<path d="M209.4 55.8028C209.4 55.8028 213.084 57.1338 212.705 52.129C212.685 51.8556 212.88 51.6109 213.169 51.525C214.247 51.2059 216.626 49.944 215.415 45.1121C215.313 44.7088 215.608 44.3121 216.062 44.2505C217.626 44.0383 220.857 43.6206 221.575 43.685C221.575 43.685 221.929 43.6499 222.46 43.7383C222.633 43.7671 222.783 43.865 222.862 44.0064C223.111 44.4539 224.54 49.0148 224.54 49.0148C224.54 49.0148 226.243 47.7298 226.06 46.8628C225.878 45.9959 225.075 44.1573 225.167 43.6958C225.259 43.2341 226.569 42.6911 226.579 41.6528C226.6 39.3048 225.685 30.3172 218.563 35.8433C217.632 36.5659 216.805 37.4352 215.98 37.7389C214.903 38.135 213.686 37.371 211.342 37.5364C208.067 37.7671 193.992 41.0624 198.498 53.592C203.004 66.1217 210.42 67.9092 210.42 67.9092C210.42 67.9092 207.988 57.3961 209.4 55.8028Z" fill="#0B4870"/>
<path d="M209.4 55.8027C209.4 55.8027 208.703 53.649 206.904 54.2695C204.488 55.1028 204.706 61.1756 209.967 60.3756C209.967 60.3759 209.263 57.8931 209.4 55.8027Z" fill="#FFE3CA"/>
<path d="M242.951 151.342C242.951 151.342 216.378 156.091 192.455 151.646C193.615 144.248 198.154 123.343 198.461 114.905L198.494 114.044C198.684 108.656 198.782 104.809 198.902 104.651C199.142 104.319 198.291 87.1253 199.701 80.3864C199.96 79.1449 200.302 78.2643 200.738 77.9072C203.538 75.577 206.83 73.1355 210.504 71.3103C210.504 71.3103 219.064 80.5281 223.431 70.3273C228.237 69.8941 230.684 70.8654 232.074 75.6805C239.768 102.432 242.951 151.342 242.951 151.342Z" fill="#2A94F4"/>
<path d="M227.017 70.3911C227.017 70.3911 234.978 70.5266 243.098 66.9238C247.629 72.2571 250.368 81.9773 250.368 81.9773C250.368 81.9773 239.413 88.947 231.406 89.6171C229.688 77.934 227.017 70.3911 227.017 70.3911Z" fill="#2A94F4"/>
<path d="M241.132 87.4553L242.081 89.3378L240.242 88.31L225.984 73.4356L226.875 72.5806L241.132 87.4553Z" fill="#0B4870"/>
<path d="M195.48 104.593C195.48 104.593 199.164 117.316 208.745 123.306C211.535 125.051 215.038 124.076 217.232 121.62C223.79 114.277 230.347 97.7362 232.445 91.4906C228.6 89.4473 227.371 89.7655 227.371 89.7655C227.371 89.7655 218.069 102.692 212.732 111.343L208.746 104.384" fill="#FCD2B1"/>
<path d="M227.097 90.2477C227.097 90.2477 228.807 87.4814 228.887 85.3856C228.967 83.2898 227.975 79.6668 230.009 77.7812C230.766 77.0793 233.415 76.0047 236.398 76.4987C240.834 77.2336 237.326 84.9344 237.124 86.6835C236.821 89.3126 233.159 90.4248 232.363 91.7353C231.796 92.667 227.097 90.2477 227.097 90.2477Z" fill="#FCD2B1"/>
<path d="M202.931 76.1492C202.931 76.1492 193.059 82.6229 192.637 93.6438C192.311 102.165 197.939 114.599 197.939 114.599C197.939 114.599 207.707 115.678 212.834 107.686C211.315 103.804 209.986 100.357 207.069 95.7742" fill="#2A94F4"/>
<path d="M268.432 8.61551L271.533 41.4409C271.617 42.3358 272.447 42.9678 273.331 42.8109L295.97 38.7927C296.758 38.6529 297.307 37.9308 297.232 37.1332L294.131 4.30778C294.046 3.41287 293.217 2.7809 292.333 2.93775L269.694 6.95573C268.905 7.09575 268.356 7.81756 268.432 8.61551Z" fill="#FFBE55"/>
<path d="M270.108 9.15478L273.077 40.5833L295.555 36.5933L292.587 5.16504L270.108 9.15478Z" fill="#F7F7F7"/>
<path d="M291.021 8.06812L271.919 11.4587" stroke="#D3D3D3" stroke-width="0.528" stroke-miterlimit="10" stroke-linecap="round" stroke-linejoin="round"/>
<path d="M291.316 11.0342L272.214 14.4247" stroke="#D3D3D3" stroke-width="0.528" stroke-miterlimit="10" stroke-linecap="round" stroke-linejoin="round"/>
<path d="M284.476 15.8279L272.539 17.9468" stroke="#D3D3D3" stroke-width="0.528" stroke-miterlimit="10" stroke-linecap="round" stroke-linejoin="round"/>
<path d="M284.448 18.4705L272.51 20.5894" stroke="#D3D3D3" stroke-width="0.528" stroke-miterlimit="10" stroke-linecap="round" stroke-linejoin="round"/>
<path d="M284.419 21.1125L272.481 23.2315" stroke="#D3D3D3" stroke-width="0.528" stroke-miterlimit="10" stroke-linecap="round" stroke-linejoin="round"/>
<path d="M292.917 32.8613L280.979 34.9803" stroke="#D3D3D3" stroke-width="0.528" stroke-miterlimit="10" stroke-linecap="round" stroke-linejoin="round"/>
<path d="M283.473 139.366C284.903 138.692 285.965 137.444 286.982 136.233C287.984 135.038 288.987 133.843 289.99 132.647C290.386 132.176 290.8 131.66 290.845 131.046C289.164 130.909 288.08 133.096 286.399 133.225C287.182 130.454 288.307 127.779 289.739 125.281C290.089 124.672 290.469 123.961 290.221 123.303C288.403 123.998 286.873 125.292 285.549 126.718C284.619 127.721 283.771 128.8 283.018 129.942C280.799 133.303 279.424 137.162 278.488 141.081L283.473 139.366ZM276.238 168.088L258.214 152.866C258.214 152.866 249.826 164.254 252.986 175.241C254.54 180.643 256.49 183.322 257.337 185.885C258.128 188.28 263.553 222.179 263.149 224.658C262.744 227.137 259.831 234.071 258.719 241.364C257.382 250.135 257.609 278.712 256.572 286.289C255.536 293.866 262.526 295.148 262.91 292.585C266.196 270.675 274.873 236.532 276.087 225.578C277.301 214.624 276.808 194.566 276.238 168.088Z" fill="#FCD2B1"/>
<path d="M264.124 285.548C264.124 285.548 262.446 293.498 262.897 294.511C263.349 295.525 264.972 298.47 266.635 299.534C268.38 300.651 272.244 301.979 272.554 302.463C272.863 302.948 271.918 302.35 271.367 302.783C269.944 303.903 267.238 303.93 265.622 303.663C260.383 302.797 261.04 302.3 257.988 301.928C257.461 301.864 256.485 302.644 255.027 301.898C253.569 301.151 252.861 299.802 252.986 298.532C253.202 296.342 254.431 294.538 255.306 292.918C256.18 291.298 256.796 283.887 256.796 283.887" fill="#FCD2B1"/>
<path d="M272.864 302.584C272.892 301.988 270.618 301.087 269.602 300.619C268.586 300.151 266.974 299.738 267.542 300.045C268.109 300.353 267.06 301.546 266.113 301.441C252.246 299.909 254.706 294.721 254.587 294.203C254.077 294.528 252.889 297.097 252.648 297.905C252.431 298.635 252.307 299.944 252.248 300.731C252 304.058 272.614 307.816 272.864 302.584Z" fill="#0B4870"/>
<path d="M300.848 304.139C300.461 303.711 296.286 303.031 294.328 302.212C292.462 301.432 290.201 298.922 289.762 297.858C289.322 296.794 289.423 291.399 289.479 289.135C289.87 273.533 292.75 235.409 293.167 226.278C293.891 210.409 291.833 194.029 285.734 168.553L263.021 151.105C263.021 151.105 256.661 162.942 258.79 174.26C260.025 180.826 265.466 181.836 266.386 184.388C267.306 186.939 281.047 228.085 281.047 228.085C281.047 228.085 278.374 236.98 278.219 246.726C278.086 255.044 281.855 280.138 282.554 289.699C282.636 291.567 282.957 296.039 282.408 297.462C281.734 299.207 280.016 301.256 280.103 303.456C280.153 304.732 280.29 304.424 281.9 304.924C283.509 305.423 285.19 306.018 285.743 305.995C288.945 305.862 289.856 305.901 295.385 305.899C297.089 305.899 299.537 307.121 300.848 305.781C301.356 305.262 301.235 304.567 300.848 304.139Z" fill="#FCD2B1"/>
<path d="M301.324 306.092C301.498 305.341 301.586 304.389 301.185 304.208C300.63 303.957 298.657 303.095 297.542 302.799C296.428 302.502 294.707 302.358 295.336 302.569C295.965 302.78 295.053 304.183 294.059 304.183C281.581 304.183 281.899 299.406 281.704 298.914C281.223 299.318 279.8 302.052 279.666 302.89C279.544 303.648 279.529 304.972 279.651 305.75C279.869 307.137 300.804 308.338 301.324 306.092Z" fill="#0B4870"/>
<path d="M258.689 150.951C257.148 152.646 251.654 161.808 251.595 169.266C251.537 176.724 254.188 181.507 254.426 183.064C256.168 194.457 257.853 208.197 257.853 208.943C257.853 209.688 264.313 214.002 273.002 213.454C289.055 212.443 295.297 208.234 295.297 208.234C295.297 208.234 294.537 180.637 292.062 167.029C290.821 160.209 285.421 149.234 285.421 149.234" fill="#0E538C"/>
<path d="M244.042 121.152C244.042 121.152 246.628 134.011 247.306 136.3C247.985 138.589 251.339 153.119 254.518 152.866C257.698 152.613 275.11 138.061 275.11 138.061L272.644 133.124L257.317 140.438C257.317 140.438 255.932 123.828 254.718 119.872" fill="#FFBE9D"/>
<path d="M254.426 103.328C254.426 103.328 249.343 103.87 246.766 105.844C240.194 110.877 245.28 129.147 245.28 129.147C245.28 129.147 244.956 130.122 249.368 129.874C253.78 129.626 257.317 128.37 257.317 128.37L256.042 113.4" fill="#FFBE55"/>
<path d="M278.717 69.6194C281.78 73.5946 281.173 79.1848 280.418 84.1473C280.036 86.6564 279.655 89.1657 279.273 91.6748C279.091 92.8668 278.849 94.1693 277.922 94.9384C276.986 95.7138 275.649 95.7007 274.435 95.6485C274.447 97.725 274.46 99.8014 274.472 101.878C270.923 101.964 267.373 101.979 263.823 101.921C263.821 100.467 263.505 99.014 262.902 97.691C261.166 97.6571 260.006 95.9141 259.326 94.3144C258.542 92.4693 257.971 90.542 257.42 88.6145C256.688 86.0566 255.982 83.4586 255.915 80.7987C255.848 78.1387 256.48 75.3739 258.167 73.3183C259.318 71.9166 260.887 70.9221 262.494 70.0825C264.695 68.9327 267.339 68.0249 269.61 69.0319" fill="#FFE3CA"/>
<path d="M275.044 88.5551C274.625 86.4672 274.655 85.2897 275.338 83.8994C275.564 83.4385 275.863 83.0042 276.27 82.7176C276.822 82.33 277.556 82.2539 278.167 82.5208C278.566 82.6951 278.895 83.0199 279.12 83.4103C279.844 80.6061 279.996 77.6176 279.787 74.7056C279.455 70.0873 276.674 66.5174 272.614 64.8479C265.095 61.7562 254.294 64.8105 251.24 72.198C248.934 77.7776 250.103 85.8307 254.518 90.508C258.427 94.6489 264.049 95.2572 269.237 94.4042C271.892 93.9679 275.989 94.2294 277.363 90.6155C277.469 90.3363 277.23 90.0586 276.948 90.0802C275.871 90.1629 275.122 88.9412 275.044 88.5551Z" fill="#0B4870"/>
<path d="M275.622 78.7319C275.901 79.1702 275.835 79.7594 276.097 80.208C276.538 80.9614 277.124 81.2338 277.915 81.6011C279.191 82.1932 278.892 84.0529 278.855 84.8845C279.818 84.2439 279.974 82.5 280.207 81.614C280.468 80.6192 280.635 79.5986 280.924 78.6118C281.206 77.6519 281.693 76.7473 281.784 75.7374C282.095 72.2479 279.908 68.1464 277.265 66.1877C275.341 64.7618 272.404 64.8208 270.23 66.271C269.315 66.8818 268.626 67.8044 268.221 68.828C268.047 69.2677 267.927 69.7796 268.143 70.2" fill="#0B4870"/>
<path d="M291.593 98.6733L284.281 130.823C284.082 131.699 284.673 132.559 285.561 132.687L308.32 135.958C309.112 136.073 309.859 135.558 310.037 134.777L317.349 102.628C317.548 101.752 316.957 100.892 316.069 100.764L293.31 97.4924C292.518 97.3783 291.771 97.8922 291.593 98.6733Z" fill="#0B4870"/>
<path d="M293.017 99.7104L286.016 130.492L308.613 133.74L315.614 102.959L293.017 99.7104Z" fill="#F7F7F7"/>
<path d="M313.22 105.226L294.017 102.466" stroke="#D3D3D3" stroke-width="0.528" stroke-miterlimit="10" stroke-linecap="round" stroke-linejoin="round"/>
<path d="M312.573 108.136L293.37 105.375" stroke="#D3D3D3" stroke-width="0.528" stroke-miterlimit="10" stroke-linecap="round" stroke-linejoin="round"/>
<path d="M304.579 110.548L292.578 108.823" stroke="#D3D3D3" stroke-width="0.528" stroke-miterlimit="10" stroke-linecap="round" stroke-linejoin="round"/>
<path d="M303.726 113.048L291.725 111.323" stroke="#D3D3D3" stroke-width="0.528" stroke-miterlimit="10" stroke-linecap="round" stroke-linejoin="round"/>
<path d="M302.873 115.549L290.872 113.824" stroke="#D3D3D3" stroke-width="0.528" stroke-miterlimit="10" stroke-linecap="round" stroke-linejoin="round"/>
<path d="M307.274 129.369L295.273 127.644" stroke="#D3D3D3" stroke-width="0.528" stroke-miterlimit="10" stroke-linecap="round" stroke-linejoin="round"/>
<path d="M282.634 124.073C282.634 124.073 293.035 149.234 297.548 149.234C300.831 149.234 308.88 126.007 308.88 126.007L303.794 123.597L298.123 133.325L292.38 115.182" fill="#FFE3CA"/>
<path d="M302.784 125.328C302.784 125.328 304.471 122.67 304.347 120.786C304.3 120.067 303.874 116.646 304.23 115.974C304.586 115.301 305.441 113.101 305.93 112.672C306.419 112.245 308.225 111.557 308.667 111.862C309.109 112.168 309.733 111.228 310.391 110.884C314.657 108.658 317.637 117.709 313.132 121.296C312.32 121.943 311.634 123.36 310.295 124.171C309.634 124.572 309.272 125.271 308.641 126.458" fill="#FFE3CA"/>
<path d="M287.869 147.963C287.385 147.246 286.267 146.389 285.866 145.6C284.904 143.707 284.063 135.736 284.394 133.699C284.749 131.517 286.678 130.342 287.549 125.484C288.671 119.226 286.108 114.362 284.674 112.278C282.649 109.332 283.85 109.349 283.157 105.74C283.032 105.09 282.885 104.396 282.441 103.943C282.004 103.495 278.984 102.114 278.391 102.022C272.76 101.149 269.451 101.831 263.759 102.08C260.943 102.204 258.131 102.533 255.366 103.143C252.306 103.819 249.641 104.631 249.012 108.788C248.038 115.216 248.857 121.715 250.809 127.813C252.103 131.854 259.83 145.835 257.915 148.541C257.477 149.16 256.382 150.334 256.25 151.105C255.765 153.931 262.143 154.925 264.873 155.149C269.032 155.491 273.804 155.262 277.973 155.067C281.132 154.919 288.04 153.815 288.531 149.909C288.627 149.142 288.248 148.523 287.869 147.963Z" fill="#FFBE55"/>
<path d="M273.068 101.634C275.777 101.775 283.662 100.39 288.044 104.978C291.716 108.822 293.819 118.899 295.297 122.986C291.619 126.739 288.076 129.766 282.504 128.547C282.294 128.391 279.529 119.681 277.516 118.906" fill="#FFBE55"/>
<path d="M276.948 90.0802C276.948 90.0802 286.289 101.955 281.03 115.182C274.597 131.362 274.025 132.219 281.03 141.757C288.035 151.294 281.82 163.003 271.766 166.038C261.712 169.074 235.894 167.61 237.455 144.952C238.093 135.686 244.317 134.248 241.764 124.983C239.21 115.718 238.659 109.966 243.403 100.062C248.147 90.1575 243.198 62.8485 268.573 63.803C268.573 63.8027 263.937 93.0382 276.948 90.0802Z" fill="#0B4870"/>
</svg>
