<svg width="594" height="334" viewBox="0 0 594 334" fill="none" xmlns="http://www.w3.org/2000/svg">
<path opacity="0.1" d="M436.674 319.134C438.808 318.887 516.888 262.836 479.646 204.359C442.403 145.881 361.254 155.31 373.539 129.833C385.825 104.357 361.127 -17.9091 263.897 4.9204C166.667 27.7499 156.603 95.923 198.835 139.071C241.068 182.219 178.84 231.252 142.316 188.924C105.791 146.595 54.9388 212.013 90.0343 241.59C125.13 271.168 95.0462 358.509 436.674 319.134Z" fill="#2A94F4"/>
<path d="M387.368 247.54C387.368 247.54 380.81 264.822 379.377 271.573C377.945 278.324 377.979 284.93 377.979 284.93L365.709 282.215C365.709 282.215 368.571 245.861 371.29 243.301C374.007 240.74 387.204 241.813 387.204 241.813L387.368 247.54Z" fill="#0E538C"/>
<path d="M401.457 238.43C401.457 238.43 403.728 266.773 405.161 271.573C406.593 276.373 419.584 295.077 419.584 295.077L405.708 291.533C405.708 291.533 391.025 276.663 384.77 245.332C380.358 223.217 395.604 228.963 401.457 238.43Z" fill="#0E538C"/>
<path d="M373.604 198.875C373.604 198.875 357.965 196.912 350.358 193.525C342.75 190.136 319.813 176.077 319.813 176.077L323.541 171.565C323.541 171.565 345.003 182.633 349.226 184.854C353.449 187.074 374.18 190.383 374.18 190.383L373.604 198.875Z" fill="#FFE3CA"/>
<path d="M398.911 204.405C399.465 218.192 400.885 237.929 401.457 238.43C401.457 238.43 394.595 243.947 388.826 244.878C383.059 245.809 370.223 245.883 370.223 245.883C370.223 245.883 374.14 219.293 374.27 214.951C374.399 210.609 372.732 194.574 372.732 194.574C401.457 177.697 398.893 203.935 398.911 204.405Z" fill="#FFBE55"/>
<path d="M383.328 186.304L383.365 189.056C383.393 191.079 385.095 192.675 387.118 192.573L387.69 192.545C389.645 192.446 391.158 190.788 391.075 188.831L390.957 186.013C390.864 183.839 388.866 182.253 386.725 182.658L386.233 182.751C384.532 183.072 383.306 184.572 383.328 186.304Z" fill="#FCD2B1"/>
<path d="M377.41 169.867C377.41 169.867 374.071 179.327 377.014 184.668C379.956 190.009 390.809 188.03 392.662 180.604C396.739 164.257 382.094 164.996 377.41 169.867Z" fill="#FFE3CA"/>
<path d="M384.733 200.848C384.733 200.848 374.433 203.23 362.909 198.371L365.165 188.342L383.365 189.06C383.365 189.056 383.984 194.441 384.733 200.848Z" fill="#FFBE55"/>
<path d="M396.894 191.611C396.393 192.121 403.19 214.249 394.404 221.94C389.559 226.18 366.767 232.213 366.767 232.213C366.566 232.483 365.165 232.888 363.751 233.234C361.56 233.772 359.249 233.079 357.712 231.431C357.597 231.307 357.492 231.193 357.399 231.091C357.112 230.772 356.982 230.346 357.037 229.919C357.17 228.917 357.928 228.113 358.921 227.918C359.345 227.834 359.778 227.769 360.128 227.757C362.238 227.689 363.905 228.549 365.991 228.475L367.302 228.428C367.302 228.428 385.692 220.888 388.148 218.99C395.601 213.225 392.043 203.196 392.696 199.126L396.894 191.611Z" fill="#FCD2B1"/>
<path d="M371.105 229.229C371.105 229.229 367.123 226.82 364.611 226.687C363.472 226.628 361.563 225.97 360.966 225.376C360.369 224.779 359.893 227.089 360.908 227.448C361.922 227.807 364.438 228.373 363.865 229.647L371.105 229.229Z" fill="#FCD2B1"/>
<path d="M392.377 189.561C392.377 189.561 401.457 188.923 402.386 209.328L390.821 212.514C390.821 212.514 382.1 200.487 392.377 189.561Z" fill="#FFBE55"/>
<path d="M320.191 176.906C320.191 176.906 322.223 177.137 325.394 176.825C328.565 176.51 326.87 175.304 326.87 175.304L324.98 172.774C324.98 172.774 323.318 168.695 321.23 167.411C320.741 167.111 320.556 166.858 320.197 166.434C319.872 166.051 316.027 165.639 319.436 168.277C320.33 168.97 320.206 169.545 319.677 169.551C319.148 169.558 315.51 166.456 314.214 167.21C310.625 169.307 312.852 173.85 314.709 174.762C316.512 175.644 320.191 176.906 320.191 176.906Z" fill="#FFE3CA"/>
<path d="M394.648 167.322C394.549 167.547 394.237 167.572 394.116 167.359C393.145 165.627 389.819 160.657 384.253 161.928C378.424 163.261 375.529 167.433 373.991 166.629C373.753 166.502 373.477 166.709 373.555 166.966C373.83 167.885 374.536 169.02 376.352 168.757C376.519 168.732 376.673 168.862 376.683 169.032C376.723 169.749 376.59 171.376 374.566 171.259C374.322 171.243 374.158 171.506 374.288 171.713C374.659 172.304 375.445 173.111 376.766 172.527C376.843 172.492 376.902 172.424 376.93 172.344C377.122 171.775 378.1 169.425 380.992 169.641C381.101 169.65 381.196 169.725 381.243 169.824C381.428 170.238 382.196 171.333 385.212 171.896C388.742 172.554 389.754 175.171 388.188 176.971C388.037 177.144 388.126 177.419 388.352 177.459C389.095 177.583 390.456 177.555 391.22 175.984C392.306 173.748 393.967 175.919 393.203 177.199C392.504 178.365 392.708 182.033 390.954 183.926C390.775 184.118 390.932 184.433 391.195 184.418C392.12 184.356 393.618 184.068 394.422 182.887C395.638 181.096 399.026 178.607 397.937 173.686C396.934 169.143 396.019 167.377 397.68 166.23C397.881 166.091 397.856 165.785 397.627 165.701C396.885 165.435 395.536 165.302 394.648 167.322Z" fill="#0B4870"/>
<path d="M268.649 134.893C268.649 134.893 280.56 151.429 286.701 157.051C292.028 161.931 305.972 168.528 310.603 170.98C311.312 171.354 311.711 171.565 311.711 171.565L313.654 167.745C313.654 167.745 294.946 154.645 291.224 151.655C287.505 148.667 276.767 132.388 276.767 132.388L268.649 134.893ZM259.677 129.645C259.068 129.271 232.783 133.492 226.855 130.981C220.928 128.47 207.807 109.206 207.807 109.206L203.748 106.744C202.133 105.764 200.828 104.347 199.986 102.656L199.126 100.93C198.213 99.0961 199.553 96.9436 201.604 96.9529L205.369 98.1034C208.305 99.0002 210.573 101.344 211.368 104.31L211.708 105.578C211.708 105.578 227.316 122.136 229.965 123.756C232.61 125.377 245.542 121.551 249.653 121.273L259.677 129.645Z" fill="#B97A59"/>
<path d="M222.354 187.946C222.354 187.946 249.746 185.522 262.146 162.145L245.925 163.277C245.925 163.277 214.533 180.694 212.145 184.031C209.756 187.368 216.442 229.195 216.442 229.195H223.007L222.354 187.946Z" fill="#0E538C"/>
<path d="M245.925 163.277C245.925 163.277 249.508 205.092 257.623 221.08C265.741 237.069 276.006 259.503 276.006 259.503L283.985 257.353L266.217 210.578C266.217 210.578 264.095 188.144 264.547 185.28C264.998 182.417 269.252 170.971 264.955 162.142L245.925 163.277Z" fill="#0E538C"/>
<path d="M237.272 123.336L238.197 133.303C238.197 133.303 245.78 134.355 245.687 134.815C242.884 148.327 238.259 167.566 237.612 167.965C237.612 167.965 244.926 168.627 250.464 170.488C256.002 172.35 266.579 177.7 266.579 177.7C266.579 177.7 267.69 153.55 268.275 149.248C268.856 144.944 273.122 129.397 273.122 129.397C258.52 115.063 237.272 123.336 237.272 123.336Z" fill="#FFBE55"/>
<path d="M264.018 119.501L263.532 122.21C263.173 124.202 261.233 125.497 259.256 125.064L258.696 124.941C256.781 124.523 255.562 122.64 255.965 120.722L257.388 113.922L261.734 115.515C263.362 116.118 264.324 117.797 264.018 119.501Z" fill="#A86D52"/>
<path d="M273.559 106.054C273.559 106.054 272.513 117.206 267.962 121.267C263.411 125.327 254.238 118.474 254.953 110.857C256.537 94.0798 270.756 99.9031 273.559 106.054Z" fill="#B97A59"/>
<path d="M265.475 123.824C265.475 123.824 275.167 128.043 281.525 138.808L273.735 145.519L264.952 137.107C264.955 137.107 262.257 129.413 265.475 123.824Z" fill="#FFBE55"/>
<path d="M103.489 332.531C103.489 332.531 149.205 234.131 203.04 234.202C265.391 234.283 220.587 268.208 283.254 269.999C345.921 271.79 469.798 308.944 469.798 308.944L496.655 332.528H103.489V332.531Z" fill="#CCE9FF"/>
<path d="M217.695 229.192L217.234 229.461C214.635 230.977 211.811 232.05 208.89 232.764C202.851 234.236 202.269 237.19 202.269 237.19C202.044 237.598 203.925 238.748 204.389 238.711L214.255 236.565C215.944 236.197 217.676 236.089 219.396 236.243L222.175 236.491C223.465 236.466 224.405 235.263 224.114 234.004L223.007 229.192H217.695ZM276.006 259.5C276.006 259.5 273.738 267.763 267.47 267.228C267.47 267.228 264.014 272.748 273.379 271.344C276.962 270.806 277.717 266.155 285.197 267.318C287.264 267.639 288.421 265.171 288.421 265.171C289.201 262.496 287.131 260.947 285.293 258.85L283.985 257.353L276.006 259.5Z" fill="#0B4870"/>
<path d="M191.775 235.804L188.632 235.572L208.271 49.8403L211.411 50.0723L191.775 235.804Z" fill="#0B4870"/>
<path d="M208.234 51.6896C208.234 51.6896 183.36 32.7537 173.352 45.3746C160.142 62.0313 151.213 55.7317 146.607 50.6598C146.607 50.6598 150.653 60.7664 133.631 76.8108C133.631 76.8108 156.142 93.2603 168.702 83.1166C181.26 72.9729 202.424 84.3289 204.998 92.184L208.234 51.6896Z" fill="#FFBE55"/>
<path d="M311.971 172.489C311.971 172.489 310.35 171.243 308.289 168.809C306.232 166.378 308.289 166.688 308.289 166.688L311.408 166.183C311.408 166.183 315.439 164.408 317.833 164.94C318.393 165.064 318.703 165.011 319.256 164.956C319.754 164.906 322.805 167.284 318.52 166.808C317.397 166.684 317.085 167.182 317.459 167.557C317.833 167.931 322.607 168.234 323.012 169.678C324.129 173.68 319.365 175.393 317.397 174.756C315.488 174.141 311.971 172.489 311.971 172.489Z" fill="#B97A59"/>
<path d="M259.08 102.866C259.08 102.866 260.846 108.29 267.114 107.576C273.382 106.858 272.615 111.534 272.615 111.534C272.615 111.534 277.89 106.809 273.676 102.869C269.459 98.926 267.86 93.7984 259.08 98.1528C250.3 102.507 252.394 110.684 254.777 113.962L255.525 114.714C255.992 115.181 256.772 115.091 257.115 114.528L257.118 114.522C257.323 114.188 257.316 113.77 257.106 113.44C256.494 112.472 255.401 110.378 256.438 109.153C257.072 108.405 257.564 108.562 257.914 108.952C258.486 109.595 259.377 109.846 260.172 109.512L260.234 109.487C260.234 109.484 263.204 106.45 259.08 102.866Z" fill="#0B4870"/>
</svg>
