<svg xmlns="http://www.w3.org/2000/svg" width="600" height="400"><path d="M319,227L228,129L284,255Z" fill="rgb(85,185,223)" stroke="rgb(85,185,223)" stroke-width="1.51"/><path d="M319,227L316,140L228,129Z" fill="rgb(78,170,231)" stroke="rgb(78,170,231)" stroke-width="1.51"/><path d="M228,129L182,157L284,255Z" fill="rgb(70,159,237)" stroke="rgb(70,159,237)" stroke-width="1.51"/><path d="M182,157L150,208L284,255Z" fill="rgb(73,164,235)" stroke="rgb(73,164,235)" stroke-width="1.51"/><path d="M150,208L196,308L284,255Z" fill="rgb(86,189,221)" stroke="rgb(86,189,221)" stroke-width="1.51"/><path d="M284,255L321,358L319,227Z" fill="rgb(87,219,199)" stroke="rgb(87,219,199)" stroke-width="1.51"/><path d="M196,308L250,335L284,255Z" fill="rgb(82,189,212)" stroke="rgb(82,189,212)" stroke-width="1.51"/><path d="M228,129L156,88L182,157Z" fill="rgb(39,132,252)" stroke="rgb(39,132,252)" stroke-width="1.51"/><path d="M182,157L70,179L150,208Z" fill="rgb(86,163,235)" stroke="rgb(86,163,235)" stroke-width="1.51"/><path d="M237,39L156,88L228,129Z" fill="rgb(72,143,245)" stroke="rgb(72,143,245)" stroke-width="1.51"/><path d="M316,140L237,39L228,129Z" fill="rgb(77,155,239)" stroke="rgb(77,155,239)" stroke-width="1.51"/><path d="M316,140L317,22L237,39Z" fill="rgb(99,175,227)" stroke="rgb(99,175,227)" stroke-width="1.51"/><path d="M404,82L317,22L316,140Z" fill="rgb(100,189,219)" stroke="rgb(100,189,219)" stroke-width="1.51"/><path d="M250,335L321,358L284,255Z" fill="rgb(81,194,205)" stroke="rgb(81,194,205)" stroke-width="1.51"/><path d="M319,227L435,146L316,140Z" fill="rgb(88,195,217)" stroke="rgb(88,195,217)" stroke-width="1.51"/><path d="M411,364L435,229L319,227Z" fill="rgb(80,248,181)" stroke="rgb(80,248,181)" stroke-width="1.51"/><path d="M435,146L404,82L316,140Z" fill="rgb(89,189,220)" stroke="rgb(89,189,220)" stroke-width="1.51"/><path d="M435,229L435,146L319,227Z" fill="rgb(90,222,200)" stroke="rgb(90,222,200)" stroke-width="1.51"/><path d="M156,88L70,179L182,157Z" fill="rgb(70,143,245)" stroke="rgb(70,143,245)" stroke-width="1.51"/><path d="M150,208L88,365L196,308Z" fill="rgb(93,188,213)" stroke="rgb(93,188,213)" stroke-width="1.51"/><path d="M70,179L46,226L150,208Z" fill="rgb(104,182,223)" stroke="rgb(104,182,223)" stroke-width="1.51"/><path d="M321,358L411,364L319,227Z" fill="rgb(81,214,192)" stroke="rgb(81,214,192)" stroke-width="1.51"/><path d="M-12,55L-16,142L70,179Z" fill="rgb(110,164,231)" stroke="rgb(110,164,231)" stroke-width="1.51"/><path d="M237,39L190,-55L156,88Z" fill="rgb(103,159,235)" stroke="rgb(103,159,235)" stroke-width="1.51"/><path d="M317,22L219,-42L237,39Z" fill="rgb(115,182,221)" stroke="rgb(115,182,221)" stroke-width="1.51"/><path d="M196,308L251,443L250,335Z" fill="rgb(60,156,217)" stroke="rgb(60,156,217)" stroke-width="1.51"/><path d="M250,335L251,443L321,358Z" fill="rgb(61,160,210)" stroke="rgb(61,160,210)" stroke-width="1.51"/><path d="M321,358L371,462L411,364Z" fill="rgb(67,182,193)" stroke="rgb(67,182,193)" stroke-width="1.51"/><path d="M46,226L88,365L150,208Z" fill="rgb(108,211,205)" stroke="rgb(108,211,205)" stroke-width="1.51"/><path d="M317,22L354,-40L219,-42Z" fill="rgb(121,196,213)" stroke="rgb(121,196,213)" stroke-width="1.51"/><path d="M404,82L354,-40L317,22Z" fill="rgb(117,210,205)" stroke="rgb(117,210,205)" stroke-width="1.51"/><path d="M459,-20L354,-40L404,82Z" fill="rgb(120,226,194)" stroke="rgb(120,226,194)" stroke-width="1.51"/><path d="M435,146L517,140L404,82Z" fill="rgb(81,177,218)" stroke="rgb(81,177,218)" stroke-width="1.51"/><path d="M435,229L510,224L435,146Z" fill="rgb(83,203,202)" stroke="rgb(83,203,202)" stroke-width="1.51"/><path d="M411,364L510,224L435,229Z" fill="rgb(77,235,181)" stroke="rgb(77,235,181)" stroke-width="1.51"/><path d="M148,461L251,443L196,308Z" fill="rgb(13,129,223)" stroke="rgb(13,129,223)" stroke-width="1.51"/><path d="M219,-42L190,-55L237,39Z" fill="rgb(113,170,228)" stroke="rgb(113,170,228)" stroke-width="1.51"/><path d="M233,-136L190,-55L219,-42Z" fill="rgb(113,170,228)" stroke="rgb(113,170,228)" stroke-width="1.51"/><path d="M510,224L517,140L435,146Z" fill="rgb(77,180,211)" stroke="rgb(77,180,211)" stroke-width="1.51"/><path d="M88,365L148,461L196,308Z" fill="rgb(66,148,216)" stroke="rgb(66,148,216)" stroke-width="1.51"/><path d="M-43,426L87,404L88,365Z" fill="rgb(89,157,204)" stroke="rgb(89,157,204)" stroke-width="1.51"/><path d="M70,179L-16,142L46,226Z" fill="rgb(112,182,221)" stroke="rgb(112,182,221)" stroke-width="1.51"/><path d="M46,226L-30,311L88,365Z" fill="rgb(112,206,198)" stroke="rgb(112,206,198)" stroke-width="1.51"/><path d="M26,21L70,179L156,88Z" fill="rgb(104,159,234)" stroke="rgb(104,159,234)" stroke-width="1.51"/><path d="M557,64L459,-20L404,82Z" fill="rgb(105,193,203)" stroke="rgb(105,193,203)" stroke-width="1.51"/><path d="M56,-30L26,21L156,88Z" fill="rgb(128,180,220)" stroke="rgb(128,180,220)" stroke-width="1.51"/><path d="M411,364L462,398L510,224Z" fill="rgb(71,204,186)" stroke="rgb(71,204,186)" stroke-width="1.51"/><path d="M371,462L462,398L411,364Z" fill="rgb(65,185,188)" stroke="rgb(65,185,188)" stroke-width="1.51"/><path d="M-16,142L-30,227L46,226Z" fill="rgb(120,196,212)" stroke="rgb(120,196,212)" stroke-width="1.51"/><path d="M87,404L148,461L88,365Z" fill="rgb(70,145,212)" stroke="rgb(70,145,212)" stroke-width="1.51"/><path d="M251,443L371,462L321,358Z" fill="rgb(60,163,203)" stroke="rgb(60,163,203)" stroke-width="1.51"/><path d="M246,515L371,462L251,443Z" fill="rgb(56,155,207)" stroke="rgb(56,155,207)" stroke-width="1.51"/><path d="M190,-55L56,-30L156,88Z" fill="rgb(125,177,222)" stroke="rgb(125,177,222)" stroke-width="1.51"/><path d="M-16,142L-105,148L-30,227Z" fill="rgb(118,184,220)" stroke="rgb(118,184,220)" stroke-width="1.51"/><path d="M26,21L-12,55L70,179Z" fill="rgb(121,174,225)" stroke="rgb(121,174,225)" stroke-width="1.51"/><path d="M7,-76L-12,55L26,21Z" fill="rgb(146,202,205)" stroke="rgb(146,202,205)" stroke-width="1.51"/><path d="M354,-40L343,-105L219,-42Z" fill="rgb(121,199,211)" stroke="rgb(121,199,211)" stroke-width="1.51"/><path d="M190,-55L139,-116L56,-30Z" fill="rgb(126,179,221)" stroke="rgb(126,179,221)" stroke-width="1.51"/><path d="M428,-105L343,-105L354,-40Z" fill="rgb(122,222,197)" stroke="rgb(122,222,197)" stroke-width="1.51"/><path d="M-30,227L-30,311L46,226Z" fill="rgb(122,224,195)" stroke="rgb(122,224,195)" stroke-width="1.51"/><path d="M29,547L178,557L148,461Z" fill="rgb(66,143,213)" stroke="rgb(66,143,213)" stroke-width="1.51"/><path d="M593,237L517,140L510,224Z" fill="rgb(71,177,204)" stroke="rgb(71,177,204)" stroke-width="1.51"/><path d="M632,60L557,64L665,117Z" fill="rgb(65,142,214)" stroke="rgb(65,142,214)" stroke-width="1.51"/><path d="M517,140L557,64L404,82Z" fill="rgb(84,172,214)" stroke="rgb(84,172,214)" stroke-width="1.51"/><path d="M148,461L246,515L251,443Z" fill="rgb(26,133,221)" stroke="rgb(26,133,221)" stroke-width="1.51"/><path d="M343,-105L233,-136L219,-42Z" fill="rgb(118,186,218)" stroke="rgb(118,186,218)" stroke-width="1.51"/><path d="M233,-136L139,-116L190,-55Z" fill="rgb(114,168,229)" stroke="rgb(114,168,229)" stroke-width="1.51"/><path d="M562,375L593,237L510,224Z" fill="rgb(70,198,186)" stroke="rgb(70,198,186)" stroke-width="1.51"/><path d="M565,-35L428,-105L459,-20Z" fill="rgb(114,202,195)" stroke="rgb(114,202,195)" stroke-width="1.51"/><path d="M459,-20L428,-105L354,-40Z" fill="rgb(121,225,192)" stroke="rgb(121,225,192)" stroke-width="1.51"/><path d="M343,-105L516,-163L233,-136Z" fill="rgb(123,218,199)" stroke="rgb(123,218,199)" stroke-width="1.51"/><path d="M246,515L379,522L371,462Z" fill="rgb(63,169,200)" stroke="rgb(63,169,200)" stroke-width="1.51"/><path d="M371,462L455,512L462,398Z" fill="rgb(63,180,188)" stroke="rgb(63,180,188)" stroke-width="1.51"/><path d="M462,398L562,375L510,224Z" fill="rgb(66,186,188)" stroke="rgb(66,186,188)" stroke-width="1.51"/><path d="M560,468L562,375L462,398Z" fill="rgb(42,150,191)" stroke="rgb(42,150,191)" stroke-width="1.51"/><path d="M139,-116L98,-137L56,-30Z" fill="rgb(132,185,217)" stroke="rgb(132,185,217)" stroke-width="1.51"/><path d="M56,-30L7,-76L26,21Z" fill="rgb(143,198,208)" stroke="rgb(143,198,208)" stroke-width="1.51"/><path d="M233,-136L98,-137L139,-116Z" fill="rgb(120,173,225)" stroke="rgb(120,173,225)" stroke-width="1.51"/><path d="M98,-137L7,-76L56,-30Z" fill="rgb(139,193,211)" stroke="rgb(139,193,211)" stroke-width="1.51"/><path d="M-100,86L-105,148L-16,142Z" fill="rgb(113,167,229)" stroke="rgb(113,167,229)" stroke-width="1.51"/><path d="M-30,227L-142,276L-30,311Z" fill="rgb(121,227,192)" stroke="rgb(121,227,192)" stroke-width="1.51"/><path d="M-100,86L-16,142L-12,55Z" fill="rgb(124,176,223)" stroke="rgb(124,176,223)" stroke-width="1.51"/><path d="M-126,-12L-100,86L-12,55Z" fill="rgb(137,191,213)" stroke="rgb(137,191,213)" stroke-width="1.51"/><path d="M379,522L455,512L371,462Z" fill="rgb(67,189,187)" stroke="rgb(67,189,187)" stroke-width="1.51"/><path d="M148,461L178,557L246,515Z" fill="rgb(24,130,222)" stroke="rgb(24,130,222)" stroke-width="1.51"/><path d="M246,515L178,557L379,522Z" fill="rgb(50,149,211)" stroke="rgb(50,149,211)" stroke-width="1.51"/><path d="M379,522L520,533L455,512Z" fill="rgb(59,173,189)" stroke="rgb(59,173,189)" stroke-width="1.51"/><path d="M29,547L148,461L87,404Z" fill="rgb(76,149,209)" stroke="rgb(76,149,209)" stroke-width="1.51"/><path d="M557,64L565,-35L459,-20Z" fill="rgb(108,187,197)" stroke="rgb(108,187,197)" stroke-width="1.51"/><path d="M632,60L565,-35L557,64Z" fill="rgb(91,161,204)" stroke="rgb(91,161,204)" stroke-width="1.51"/><path d="M-30,311L-43,426L88,365Z" fill="rgb(105,180,198)" stroke="rgb(105,180,198)" stroke-width="1.51"/><path d="M-133,326L-43,426L-30,311Z" fill="rgb(108,187,197)" stroke="rgb(108,187,197)" stroke-width="1.51"/><path d="M665,117L557,64L517,140Z" fill="rgb(55,141,218)" stroke="rgb(55,141,218)" stroke-width="1.51"/><path d="M611,472L642,326L562,375Z" fill="rgb(15,132,192)" stroke="rgb(15,132,192)" stroke-width="1.51"/><path d="M562,375L642,326L593,237Z" fill="rgb(56,169,189)" stroke="rgb(56,169,189)" stroke-width="1.51"/><path d="M593,237L665,117L517,140Z" fill="rgb(47,145,215)" stroke="rgb(47,145,215)" stroke-width="1.51"/><path d="M455,512L560,468L462,398Z" fill="rgb(52,161,190)" stroke="rgb(52,161,190)" stroke-width="1.51"/><path d="M703,236L665,117L593,237Z" fill="rgb(57,157,207)" stroke="rgb(57,157,207)" stroke-width="1.51"/><path d="M-126,-12L-142,276L-105,148Z" fill="rgb(111,167,229)" stroke="rgb(111,167,229)" stroke-width="1.51"/><path d="M-105,148L-142,276L-30,227Z" fill="rgb(122,206,207)" stroke="rgb(122,206,207)" stroke-width="1.51"/><path d="M632,60L592,-56L565,-35Z" fill="rgb(99,166,198)" stroke="rgb(99,166,198)" stroke-width="1.51"/><path d="M565,-35L516,-163L428,-105Z" fill="rgb(112,196,195)" stroke="rgb(112,196,195)" stroke-width="1.51"/><path d="M598,-152L592,-56L736,-140Z" fill="rgb(98,165,198)" stroke="rgb(98,165,198)" stroke-width="1.51"/><path d="M-142,276L-133,326L-30,311Z" fill="rgb(117,211,194)" stroke="rgb(117,211,194)" stroke-width="1.51"/><path d="M7,-76L-126,-12L-12,55Z" fill="rgb(147,204,204)" stroke="rgb(147,204,204)" stroke-width="1.51"/><path d="M98,-137L-30,-109L7,-76Z" fill="rgb(144,199,208)" stroke="rgb(144,199,208)" stroke-width="1.51"/><path d="M-12,551L29,547L-43,426Z" fill="rgb(98,165,198)" stroke="rgb(98,165,198)" stroke-width="1.51"/><path d="M-43,426L29,547L87,404Z" fill="rgb(93,160,202)" stroke="rgb(93,160,202)" stroke-width="1.51"/><path d="M178,557L520,533L379,522Z" fill="rgb(65,177,195)" stroke="rgb(65,177,195)" stroke-width="1.51"/><path d="M455,512L520,533L560,468Z" fill="rgb(47,155,190)" stroke="rgb(47,155,190)" stroke-width="1.51"/><path d="M592,-56L516,-163L565,-35Z" fill="rgb(105,179,197)" stroke="rgb(105,179,197)" stroke-width="1.51"/><path d="M428,-105L516,-163L343,-105Z" fill="rgb(119,220,193)" stroke="rgb(119,220,193)" stroke-width="1.51"/><path d="M233,-136L516,-163L98,-137Z" fill="rgb(120,191,215)" stroke="rgb(120,191,215)" stroke-width="1.51"/><path d="M-100,86L-126,-12L-105,148Z" fill="rgb(129,182,219)" stroke="rgb(129,182,219)" stroke-width="1.51"/><path d="M-30,-109L-126,-12L7,-76Z" fill="rgb(147,204,204)" stroke="rgb(147,204,204)" stroke-width="1.51"/><path d="M611,472L562,375L560,468Z" fill="rgb(21,134,192)" stroke="rgb(21,134,192)" stroke-width="1.51"/><path d="M699,359L703,236L642,326Z" fill="rgb(58,171,189)" stroke="rgb(58,171,189)" stroke-width="1.51"/><path d="M642,326L703,236L593,237Z" fill="rgb(67,190,187)" stroke="rgb(67,190,187)" stroke-width="1.51"/><path d="M520,533L611,472L560,468Z" fill="rgb(28,139,192)" stroke="rgb(28,139,192)" stroke-width="1.51"/><path d="M-135,445L-12,551L-43,426Z" fill="rgb(98,165,198)" stroke="rgb(98,165,198)" stroke-width="1.51"/><path d="M29,547L-12,551L178,557Z" fill="rgb(83,153,207)" stroke="rgb(83,153,207)" stroke-width="1.51"/><path d="M611,472L699,359L642,326Z" fill="rgb(21,134,192)" stroke="rgb(21,134,192)" stroke-width="1.51"/><path d="M-133,326L-135,445L-43,426Z" fill="rgb(98,165,198)" stroke="rgb(98,165,198)" stroke-width="1.51"/><path d="M-142,276L-135,445L-133,326Z" fill="rgb(109,189,197)" stroke="rgb(109,189,197)" stroke-width="1.51"/><path d="M703,236L738,176L665,117Z" fill="rgb(50,148,212)" stroke="rgb(50,148,212)" stroke-width="1.51"/><path d="M665,117L715,25L632,60Z" fill="rgb(72,146,211)" stroke="rgb(72,146,211)" stroke-width="1.51"/><path d="M741,409L738,176L703,236Z" fill="rgb(65,186,187)" stroke="rgb(65,186,187)" stroke-width="1.51"/><path d="M592,-56L598,-152L516,-163Z" fill="rgb(103,175,198)" stroke="rgb(103,175,198)" stroke-width="1.51"/><path d="M715,25L592,-56L632,60Z" fill="rgb(95,162,200)" stroke="rgb(95,162,200)" stroke-width="1.51"/><path d="M738,176L715,25L665,117Z" fill="rgb(47,136,218)" stroke="rgb(47,136,218)" stroke-width="1.51"/><path d="M-30,-109L-144,-144L-126,-12Z" fill="rgb(147,204,204)" stroke="rgb(147,204,204)" stroke-width="1.51"/><path d="M-126,-12L-144,-144L-142,276Z" fill="rgb(138,192,212)" stroke="rgb(138,192,212)" stroke-width="1.51"/><path d="M98,-137L-144,-144L-30,-109Z" fill="rgb(147,204,204)" stroke="rgb(147,204,204)" stroke-width="1.51"/><path d="M516,-163L-144,-144L98,-137Z" fill="rgb(120,173,225)" stroke="rgb(120,173,225)" stroke-width="1.51"/><path d="M699,359L741,409L703,236Z" fill="rgb(49,158,190)" stroke="rgb(49,158,190)" stroke-width="1.51"/><path d="M611,472L741,409L699,359Z" fill="rgb(0,128,192)" stroke="rgb(0,128,192)" stroke-width="1.51"/><path d="M714,502L741,409L611,472Z" fill="rgb(0,128,192)" stroke="rgb(0,128,192)" stroke-width="1.51"/><path d="M-144,-144L-149,539L-142,276Z" fill="rgb(122,209,205)" stroke="rgb(122,209,205)" stroke-width="1.51"/><path d="M-142,276L-149,539L-135,445Z" fill="rgb(98,165,198)" stroke="rgb(98,165,198)" stroke-width="1.51"/><path d="M-135,445L-149,539L-12,551Z" fill="rgb(98,165,198)" stroke="rgb(98,165,198)" stroke-width="1.51"/><path d="M741,409L757,-34L738,176Z" fill="rgb(53,151,210)" stroke="rgb(53,151,210)" stroke-width="1.51"/><path d="M738,176L757,-34L715,25Z" fill="rgb(78,149,209)" stroke="rgb(78,149,209)" stroke-width="1.51"/><path d="M715,25L757,-34L592,-56Z" fill="rgb(98,165,198)" stroke="rgb(98,165,198)" stroke-width="1.51"/><path d="M663,571L714,502L611,472Z" fill="rgb(0,128,192)" stroke="rgb(0,128,192)" stroke-width="1.51"/><path d="M520,533L663,571L611,472Z" fill="rgb(2,128,192)" stroke="rgb(2,128,192)" stroke-width="1.51"/><path d="M178,557L663,571L520,533Z" fill="rgb(59,172,189)" stroke="rgb(59,172,189)" stroke-width="1.51"/><path d="M757,-34L736,-140L592,-56Z" fill="rgb(98,165,198)" stroke="rgb(98,165,198)" stroke-width="1.51"/><path d="M598,-152L736,-140L516,-163Z" fill="rgb(98,165,198)" stroke="rgb(98,165,198)" stroke-width="1.51"/></svg>