<svg width="58" height="37" viewBox="0 0 58 37" fill="none" xmlns="http://www.w3.org/2000/svg">
<path d="M18.2409 36.5944C40.0531 36.5944 51.9852 22.5194 51.9852 10.335C51.9852 9.9411 51.9852 9.54161 51.9636 9.14775C54.2866 7.83811 56.2916 6.2167 57.8845 4.35949C55.7145 5.1046 53.4149 5.59567 51.0604 5.81678C53.5405 4.66231 55.3981 2.84584 56.2877 0.704994C53.9576 1.78003 51.4073 2.5347 48.7484 2.93595C46.9609 1.4534 44.5955 0.471258 42.0187 0.141649C39.4418 -0.187959 36.7973 0.153364 34.4947 1.11275C32.1922 2.07213 30.3601 3.59604 29.2823 5.44841C28.2045 7.30078 27.9411 9.37825 28.5329 11.359C23.8176 11.1749 19.2047 10.2209 14.9934 8.55904C10.782 6.89715 7.06624 4.56442 4.08707 1.71216C2.57465 3.74642 2.1131 6.1527 2.79612 8.44235C3.47915 10.732 5.25555 12.7334 7.76459 14.0401C5.88443 13.9904 4.0456 13.5972 2.39641 12.8923V13.0189C2.39966 15.1499 3.34761 17.2147 5.08005 18.8643C6.81248 20.5138 9.22313 21.6469 11.9045 22.0721C10.8867 22.2905 9.83539 22.3993 8.77971 22.3956C8.03547 22.3974 7.29273 22.3437 6.56163 22.2353C7.31948 24.0697 8.79514 25.6736 10.7819 26.8223C12.7687 27.971 15.1671 28.607 17.6412 28.6412C13.4382 31.212 8.24651 32.6063 2.90216 32.5995C1.96046 32.6026 1.01941 32.5603 0.0844116 32.4729C5.50864 35.166 11.8081 36.596 18.2409 36.5944Z" fill="#1DA1F2"/>
</svg>
