<svg width="79" height="44" viewBox="0 0 79 44" fill="none" xmlns="http://www.w3.org/2000/svg">
<g clip-path="url(#clip0_60_114)">
<path d="M76.7983 6.72706C76.3489 5.43036 75.4723 4.24821 74.2557 3.29831C73.0391 2.34842 71.5251 1.66392 69.8643 1.31298C63.7841 0.0183105 39.3134 0.0183105 39.3134 0.0183105C39.3134 0.0183105 14.8415 0.0574996 8.76135 1.35217C7.10052 1.70313 5.58642 2.38766 4.36984 3.3376C3.15325 4.28755 2.27663 5.46975 1.82727 6.76648C-0.0118406 15.2012 -0.725265 28.0538 1.87777 36.1511C2.32718 37.4478 3.20382 38.63 4.4204 39.5799C5.63698 40.5298 7.15106 41.2143 8.81185 41.5652C14.892 42.8599 39.3633 42.8599 39.3633 42.8599C39.3633 42.8599 63.8343 42.8599 69.9142 41.5652C71.575 41.2143 73.0891 40.5298 74.3058 39.5799C75.5224 38.63 76.3991 37.4479 76.8485 36.1511C78.7883 27.7045 79.3861 14.86 76.7983 6.72729V6.72706Z" fill="#FF0000"/>
<path d="M31.5243 30.6192L51.8249 21.439L31.5246 12.2587L31.5243 30.6192Z" fill="white"/>
</g>
<defs>
<clipPath id="clip0_60_114">
<rect width="78.3512" height="43.0124" fill="white" transform="translate(0.177734 0.0183105)"/>
</clipPath>
</defs>
</svg>
